<svg xmlns="http://www.w3.org/2000/svg" width="28" height="28" viewBox="0 0 28 28" fill="none"><rect width="28" height="28" rx="14" fill="#61FF03"/><mask id="mask0_1601_2035" style="mask-type:luminance" maskUnits="userSpaceOnUse" x="5" y="7" width="18" height="15"><path d="M15.8001 7H12.2001C8.80628 7 7.1089 7 6.05501 8.05479C5.29542 8.81348 5.08302 9.90606 5.02362 11.7249H22.9766C22.9172 9.90606 22.7048 8.81348 21.9452 8.05479C20.8913 7 19.1939 7 15.8001 7ZM12.2001 21.3998H15.8001C19.1939 21.3998 20.8913 21.3998 21.9452 20.345C22.9991 19.2902 23 17.5938 23 14.1999C23 13.8027 22.9994 13.4277 22.9982 13.0749H5.00203C5.00023 13.4277 4.99962 13.8027 5.00022 14.1999C5.00022 17.5938 5.00022 19.2911 6.05501 20.345C7.1098 21.3989 8.80628 21.3998 12.2001 21.3998Z" fill="white"/><path fill-rule="evenodd" clip-rule="evenodd" d="M7.92529 17.8C7.92529 17.621 7.99641 17.4493 8.12299 17.3227C8.24958 17.1961 8.42127 17.125 8.60028 17.125H12.2002C12.3793 17.125 12.5509 17.1961 12.6775 17.3227C12.8041 17.4493 12.8752 17.621 12.8752 17.8C12.8752 17.979 12.8041 18.1507 12.6775 18.2773C12.5509 18.4039 12.3793 18.475 12.2002 18.475H8.60028C8.42127 18.475 8.24958 18.4039 8.12299 18.2773C7.99641 18.1507 7.92529 17.979 7.92529 17.8ZM13.7752 17.8C13.7752 17.621 13.8463 17.4493 13.9729 17.3227C14.0995 17.1961 14.2712 17.125 14.4502 17.125H15.8002C15.9792 17.125 16.1509 17.1961 16.2775 17.3227C16.4041 17.4493 16.4752 17.621 16.4752 17.8C16.4752 17.979 16.4041 18.1507 16.2775 18.2773C16.1509 18.4039 15.9792 18.475 15.8002 18.475H14.4502C14.2712 18.475 14.0995 18.4039 13.9729 18.2773C13.8463 18.1507 13.7752 17.979 13.7752 17.8Z" fill="black"/></mask><g mask="url(#mask0_1601_2035)"><path d="M3.20068 3.40015H24.8004V24.9999H3.20068V3.40015Z" fill="#0B0B0B"/></g></svg>