<svg width="165" height="68" viewBox="0 0 165 68" fill="none" xmlns="http://www.w3.org/2000/svg"><g filter="url(#filter0_i_1649_1125)"><path d="M23.5572 32.6411L30.4468 25.7514C34.2383 21.96 37.3452 18.8618 37.3628 18.8618C37.3716 18.8618 37.4593 18.9057 37.5559 18.9496C37.7314 19.0373 37.7314 19.1251 37.7314 23.6012C37.7314 27.419 37.7051 28.2791 37.591 28.8408C37.512 29.2182 37.3101 29.7975 37.1434 30.1397C36.845 30.7102 36.1077 31.4738 27.4716 40.1275C20.5117 47.0961 18.0718 49.4921 17.9402 49.4746C17.7646 49.4482 17.7646 49.378 17.7646 38.7847C17.7646 28.1913 17.7646 28.1211 17.9402 28.0948C18.0718 28.0685 18.695 28.6477 22.6795 32.6411C22.9692 32.699 23.2675 32.699 23.5572 32.6411Z" fill="#FEFEFE"></path><path d="M35.4815 35.9091L35.5285 35.8621C42.4883 28.8935 44.9282 26.4975 45.0599 26.515C45.2352 26.5413 45.2354 26.6202 45.2792 47.8532L45.2793 47.9123L45.0774 47.9562C44.9194 47.9913 44.5157 47.6227 42.6902 45.7709C41.479 44.5421 40.4083 43.4977 40.2942 43.4451C40.1889 43.3924 40.0045 43.3485 39.8817 43.3485C39.7588 43.3485 39.5745 43.3924 39.4604 43.4538C39.3551 43.5065 36.2131 46.6046 32.483 50.3435C28.7529 54.0735 25.6548 57.1278 25.5934 57.1278C25.5319 57.1278 25.4354 57.0839 25.374 57.0224C25.2862 56.9347 25.2686 55.9166 25.2686 52.3445C25.2686 48.6759 25.295 47.6578 25.4003 47.1663C25.4705 46.824 25.6724 46.2536 25.8479 45.8937C26.1545 45.2541 26.4524 44.9557 35.4815 35.9091Z" fill="#FEFEFE"></path></g><g opacity="0.05" filter="url(#filter1_i_1649_1125)"><path d="M21.9474 31.5604L30.2105 23.2802C34.7579 18.7235 38.4842 15 38.5053 15C38.5158 15 38.6211 15.0527 38.7368 15.1055C38.9474 15.211 38.9474 15.3164 38.9474 20.6959C38.9474 25.2843 38.9158 26.318 38.7789 26.9931C38.6842 27.4467 38.4421 28.1428 38.2421 28.5542C37.8842 29.2398 37 30.1575 26.6421 40.5578C18.2947 48.933 15.3684 51.8126 15.2105 51.7915C15 51.7598 15 51.6755 15 38.944C15 26.2125 15 26.1282 15.2105 26.0965C15.3684 26.0649 16.1158 26.761 20.8947 31.5604C21.2422 31.63 21.5999 31.63 21.9474 31.5604Z" fill="#FEFEFE"></path><path d="M36.2489 35.4881L36.3053 35.4315C44.6526 27.0564 47.5789 24.1768 47.7368 24.1979C47.9472 24.2295 47.9474 24.3243 47.9999 49.8428L48 49.9139L47.7579 49.9667C47.5684 50.0089 47.0842 49.5659 44.8947 47.3402C43.4421 45.8635 42.1579 44.6083 42.0211 44.545C41.8947 44.4817 41.6737 44.429 41.5263 44.429C41.3789 44.429 41.1579 44.4817 41.0211 44.5555C40.8947 44.6188 37.1263 48.3423 32.6526 52.8357C28.1789 57.3187 24.4632 60.9894 24.3895 60.9894C24.3158 60.9894 24.2 60.9366 24.1263 60.8628C24.0211 60.7573 24 59.5337 24 55.2407C24 50.8316 24.0316 49.608 24.1579 49.0174C24.2421 48.606 24.4842 47.9204 24.6947 47.4879C25.0625 46.7192 25.4198 46.3605 36.2489 35.4881Z" fill="#FEFEFE"></path></g><g filter="url(#filter2_ii_1649_1125)"><path d="M23.5572 32.6411L30.4468 25.7514C34.2383 21.96 37.3452 18.8618 37.3628 18.8618C37.3716 18.8618 37.4593 18.9057 37.5559 18.9496C37.7314 19.0373 37.7314 19.1251 37.7314 23.6012C37.7314 27.419 37.7051 28.2791 37.591 28.8408C37.512 29.2182 37.3101 29.7975 37.1434 30.1397C36.845 30.7102 36.1077 31.4738 27.4716 40.1275C20.5117 47.0961 18.0718 49.4921 17.9402 49.4746C17.7646 49.4482 17.7646 49.378 17.7646 38.7847C17.7646 28.1913 17.7646 28.1211 17.9402 28.0948C18.0718 28.0685 18.695 28.6477 22.6795 32.6411C22.9692 32.699 23.2675 32.699 23.5572 32.6411Z" fill="#FEFEFE"></path><path d="M23.5572 32.6411L30.4468 25.7514C34.2383 21.96 37.3452 18.8618 37.3628 18.8618C37.3716 18.8618 37.4593 18.9057 37.5559 18.9496C37.7314 19.0373 37.7314 19.1251 37.7314 23.6012C37.7314 27.419 37.7051 28.2791 37.591 28.8408C37.512 29.2182 37.3101 29.7975 37.1434 30.1397C36.845 30.7102 36.1077 31.4738 27.4716 40.1275C20.5117 47.0961 18.0718 49.4921 17.9402 49.4746C17.7646 49.4482 17.7646 49.378 17.7646 38.7847C17.7646 28.1913 17.7646 28.1211 17.9402 28.0948C18.0718 28.0685 18.695 28.6477 22.6795 32.6411C22.9692 32.699 23.2675 32.699 23.5572 32.6411Z" fill="url(#paint0_linear_1649_1125)"></path></g><g opacity="0.4" filter="url(#filter3_if_1649_1125)"><path d="M23.5572 32.6411L30.4468 25.7514C34.2383 21.96 37.3452 18.8618 37.3628 18.8618C37.3716 18.8618 37.4593 18.9057 37.5559 18.9496C37.7314 19.0373 37.7314 19.1251 37.7314 23.6012C37.7314 27.419 37.7051 28.2791 37.591 28.8408C37.512 29.2182 37.3101 29.7975 37.1434 30.1397C36.845 30.7102 36.1077 31.4738 27.4716 40.1275C20.5117 47.0961 18.0718 49.4921 17.9402 49.4746C17.7646 49.4482 17.7646 49.378 17.7646 38.7847C17.7646 28.1913 17.7646 28.1211 17.9402 28.0948C18.0718 28.0685 18.695 28.6477 22.6795 32.6411C22.9692 32.699 23.2675 32.699 23.5572 32.6411Z" fill="#FEFEFE"></path><path d="M23.5572 32.6411L30.4468 25.7514C34.2383 21.96 37.3452 18.8618 37.3628 18.8618C37.3716 18.8618 37.4593 18.9057 37.5559 18.9496C37.7314 19.0373 37.7314 19.1251 37.7314 23.6012C37.7314 27.419 37.7051 28.2791 37.591 28.8408C37.512 29.2182 37.3101 29.7975 37.1434 30.1397C36.845 30.7102 36.1077 31.4738 27.4716 40.1275C20.5117 47.0961 18.0718 49.4921 17.9402 49.4746C17.7646 49.4482 17.7646 49.378 17.7646 38.7847C17.7646 28.1913 17.7646 28.1211 17.9402 28.0948C18.0718 28.0685 18.695 28.6477 22.6795 32.6411C22.9692 32.699 23.2675 32.699 23.5572 32.6411Z" fill="url(#paint1_linear_1649_1125)"></path></g><g filter="url(#filter4_ii_1649_1125)"><path d="M72.6504 45.9346C72.6703 45.9361 72.6765 46.0504 72.6631 46.1846C72.6563 46.3265 72.6157 46.5632 72.5752 46.7119C72.5346 46.8606 72.4603 47.1448 72.4062 47.334C72.3185 47.6715 72.2914 47.7052 71.9199 47.8809C71.7103 47.9891 70.9267 48.3943 70.1836 48.7861C69.4403 49.1781 68.0415 49.8815 67.0752 50.3545C66.1089 50.8343 65.2639 51.2465 65.1963 51.2803C65.1355 51.314 65.0681 51.3269 65.0479 51.3066C65.0281 51.2862 65.0883 51.2188 65.1826 51.1514C65.2772 51.0906 65.5547 50.8817 65.8047 50.6992C66.048 50.51 66.4402 50.2256 66.6768 50.0566C66.9067 49.8875 67.4199 49.5091 67.8184 49.2119C68.2235 48.9148 68.73 48.5235 68.96 48.3477C69.1897 48.1652 69.6702 47.8136 70.0352 47.5703C70.4 47.3203 70.8726 47.0023 71.082 46.8672C71.2914 46.7321 71.5885 46.5499 71.7373 46.4688C71.886 46.3877 72.0286 46.2995 72.0557 46.2725C72.0835 46.2517 72.2182 46.1647 72.3594 46.084C72.5013 46.0029 72.6301 45.9413 72.6504 45.9346ZM85.1377 26.8047C85.3134 26.7844 85.6244 26.7776 85.8271 26.7979C86.0298 26.8114 86.4419 26.9053 86.7393 26.9932C87.0366 27.0878 87.4625 27.2571 87.6855 27.3652C87.9085 27.4801 88.2325 27.6693 88.4082 27.7842C88.5771 27.8991 88.9088 28.2033 89.1318 28.4668C89.3548 28.7303 89.6321 29.1089 89.7334 29.3115C89.8415 29.5143 89.997 29.872 90.0713 30.1084C90.1524 30.3382 90.2534 30.8116 90.2939 31.1562C90.3412 31.5211 90.3551 32.1629 90.3281 32.7236C90.3079 33.298 90.2335 33.8866 90.1592 34.2109C90.0849 34.5081 89.9293 35.0008 89.8145 35.3115C89.7063 35.6156 89.4964 36.0891 89.3545 36.3594C89.2126 36.6229 89.0373 36.9407 88.9697 37.0488C88.8954 37.1569 88.6992 37.4203 88.5303 37.623C88.3614 37.8257 88.0908 38.116 87.9219 38.2715C87.7529 38.4202 87.4824 38.65 87.3135 38.7852C87.1446 38.9203 86.861 39.1027 86.6719 39.1973C86.4894 39.2851 86.0903 39.4405 85.793 39.5352C85.4957 39.6297 85.1042 39.7249 84.915 39.752C84.7326 39.779 84.0837 39.8259 82.3809 39.8867L82.7051 40.2656C82.8807 40.4683 83.1443 40.7853 83.293 40.9678C83.4416 41.1435 83.6852 41.4346 83.8271 41.6035C83.9758 41.7724 84.1442 41.9754 84.1982 42.043C84.2592 42.1107 84.5366 42.4345 84.8203 42.752C85.0974 43.0695 85.5569 43.6034 85.834 43.9277C86.1043 44.2589 86.5302 44.7661 86.7734 45.0566C87.0169 45.3474 87.6786 46.1311 88.2461 46.8066C88.807 47.4756 89.2734 48.0639 89.2734 48.0977C89.2662 48.1447 88.0197 48.165 82.1445 48.165L81.5361 47.4482C81.1985 47.0565 80.8339 46.6176 80.7256 46.4688C80.6175 46.3268 80.2044 45.8404 79.8125 45.3809C79.4273 44.9213 78.6507 44.002 78.0898 43.3398C77.5359 42.6711 76.9685 42.0023 76.8398 41.8398C76.7115 41.6777 76.3736 41.2721 75.5898 40.333L74.8799 40.3262C74.488 40.3262 74.1362 40.3529 74.0889 40.3799C74.0414 40.408 73.9274 40.7793 73.833 41.2041C73.7384 41.6298 73.5483 42.4213 73.4199 42.9619C73.2917 43.5019 73.1301 44.0418 73.0557 44.1641C72.9815 44.2787 72.8396 44.4341 72.7383 44.4951C72.6302 44.5627 72.3795 44.7459 72.1768 44.9014C71.9739 45.0569 71.5479 45.381 71.2305 45.6309C70.9128 45.8742 70.3728 46.3 70.0215 46.5635C69.6768 46.8338 69.3252 47.0973 69.2441 47.1514C69.163 47.2055 68.9738 47.3471 68.8252 47.4619C68.6833 47.5768 68.3992 47.78 68.21 47.9219C67.8657 48.1581 67.8316 48.165 67.2441 48.165C66.8187 48.165 66.6289 48.138 66.6084 48.084C66.5881 48.0367 66.6355 47.786 66.7031 47.5225C66.7708 47.2584 67.0413 46.232 67.3047 45.2256C67.5682 44.219 67.8791 43.05 67.9873 42.624C68.0954 42.1983 68.2777 41.4682 68.3926 41.002C68.5075 40.5357 68.6293 40.0622 68.6631 39.9541C68.697 39.8453 68.8317 39.3255 68.96 38.8057C69.0948 38.2865 69.2036 37.8077 69.2041 37.7451C69.2041 37.6438 69.1698 37.6297 69.0215 37.6836C68.9134 37.7174 68.5754 37.8462 68.2578 37.9746C67.9402 38.103 67.2507 38.4001 66.7236 38.623C66.1921 38.8518 65.7475 39.0273 65.7236 39.0088C65.7034 38.9885 65.8114 38.9141 65.96 38.8398C66.1083 38.7657 66.243 38.6707 66.2637 38.6367C66.2839 38.6029 66.7644 38.2246 67.332 37.8057C67.8927 37.3868 68.5614 36.9004 68.8184 36.7246C69.0673 36.5497 69.2829 36.4074 69.3047 36.4062C69.325 36.4062 69.5013 36.2784 69.6973 36.1162C69.8863 35.9542 70.1696 35.745 70.3184 35.6436C70.4668 35.5423 70.6491 35.4136 70.7236 35.3594C70.8453 35.2715 71.623 35.2578 77.1777 35.2578C82.6356 35.2578 83.5423 35.244 83.8535 35.1562C84.0765 35.0954 84.2927 34.967 84.4414 34.8184C84.5698 34.69 84.753 34.4403 84.8408 34.2646C84.9287 34.0822 85.0099 33.8454 85.0234 33.7373C85.0369 33.6292 85.0162 33.4132 84.9824 33.2646C84.9419 33.089 84.8201 32.8924 84.6309 32.71C84.4621 32.5413 84.2327 32.3932 84.0908 32.3525C83.9422 32.3188 82.4482 32.2842 80.5088 32.2842C78.6776 32.2842 77.1638 32.2643 77.1436 32.2373C77.1302 32.2034 77.2382 32.0746 77.3936 31.9463C77.549 31.8179 77.7997 31.6356 77.9551 31.541C78.1105 31.4464 78.3265 31.3116 78.4346 31.2373C78.5427 31.1629 78.9211 30.8924 79.2725 30.6289C79.6239 30.3654 80.2321 29.9394 80.624 29.6826C81.0091 29.4192 81.4885 29.0881 81.6777 28.9395C81.8737 28.7908 82.6651 28.2569 83.4287 27.7568C84.5632 27.0208 84.8877 26.8386 85.1377 26.8047ZM86.4219 24.2432C86.4516 24.2432 86.4039 24.3113 86.3076 24.4121L76.3984 31.4678C76.3254 31.5118 76.2764 31.5403 76.2656 31.541C76.2454 31.541 76.0561 31.6767 75.8467 31.832C75.6306 31.9941 75.3869 32.1625 75.3057 32.2031C75.2043 32.2572 74.7719 32.2842 74.1367 32.2842C73.583 32.2842 73.0563 32.2574 72.9746 32.2236C72.8868 32.1831 71.6028 30.9534 70.1162 29.4736C67.7785 27.1562 67.4331 26.7906 67.5479 26.7432C67.6222 26.7094 70.8866 26.6825 81.9082 26.6758L82.4277 26.3984C82.7183 26.243 83.3067 25.9191 83.7324 25.6758C84.1578 25.4394 84.5698 25.2167 84.6445 25.1895C84.7189 25.1624 85.023 24.9931 85.3203 24.8174C85.6176 24.6417 85.8949 24.4931 85.9287 24.4863C85.9627 24.4794 86.0706 24.4258 86.165 24.3584C86.2596 24.2976 86.3746 24.2432 86.4219 24.2432Z" fill="white"></path></g><g filter="url(#filter5_i_1649_1125)"><path d="M72.6504 45.9346C72.6703 45.9361 72.6765 46.0504 72.6631 46.1846C72.6563 46.3265 72.6157 46.5632 72.5752 46.7119C72.5346 46.8606 72.4603 47.1448 72.4062 47.334C72.3185 47.6715 72.2914 47.7052 71.9199 47.8809C71.7103 47.9891 70.9267 48.3943 70.1836 48.7861C69.4403 49.1781 68.0415 49.8815 67.0752 50.3545C66.1089 50.8343 65.2639 51.2465 65.1963 51.2803C65.1355 51.314 65.0681 51.3269 65.0479 51.3066C65.0281 51.2862 65.0883 51.2188 65.1826 51.1514C65.2772 51.0906 65.5547 50.8817 65.8047 50.6992C66.048 50.51 66.4402 50.2256 66.6768 50.0566C66.9067 49.8875 67.4199 49.5091 67.8184 49.2119C68.2235 48.9148 68.73 48.5235 68.96 48.3477C69.1897 48.1652 69.6702 47.8136 70.0352 47.5703C70.4 47.3203 70.8726 47.0023 71.082 46.8672C71.2914 46.7321 71.5885 46.5499 71.7373 46.4688C71.886 46.3877 72.0286 46.2995 72.0557 46.2725C72.0835 46.2517 72.2182 46.1647 72.3594 46.084C72.5013 46.0029 72.6301 45.9413 72.6504 45.9346ZM86.4219 24.2432C86.4516 24.2432 86.4039 24.3113 86.3076 24.4121L76.3984 31.4678C76.3254 31.5118 76.2764 31.5403 76.2656 31.541C76.2454 31.541 76.0561 31.6767 75.8467 31.832C75.6306 31.9941 75.3869 32.1625 75.3057 32.2031C75.2043 32.2572 74.7719 32.2842 74.1367 32.2842C73.583 32.2842 73.0563 32.2574 72.9746 32.2236C72.8868 32.1831 71.6028 30.9534 70.1162 29.4736C67.7785 27.1562 67.4331 26.7906 67.5479 26.7432C67.6222 26.7094 70.8866 26.6825 81.9082 26.6758L82.4277 26.3984C82.7183 26.243 83.3067 25.9191 83.7324 25.6758C84.1578 25.4394 84.5698 25.2167 84.6445 25.1895C84.7189 25.1624 85.023 24.9931 85.3203 24.8174C85.6176 24.6417 85.8949 24.4931 85.9287 24.4863C85.9627 24.4794 86.0706 24.4258 86.165 24.3584C86.2596 24.2976 86.3746 24.2432 86.4219 24.2432Z" fill="white"></path><path d="M72.6504 45.9346C72.6703 45.9361 72.6765 46.0504 72.6631 46.1846C72.6563 46.3265 72.6157 46.5632 72.5752 46.7119C72.5346 46.8606 72.4603 47.1448 72.4062 47.334C72.3185 47.6715 72.2914 47.7052 71.9199 47.8809C71.7103 47.9891 70.9267 48.3943 70.1836 48.7861C69.4403 49.1781 68.0415 49.8815 67.0752 50.3545C66.1089 50.8343 65.2639 51.2465 65.1963 51.2803C65.1355 51.314 65.0681 51.3269 65.0479 51.3066C65.0281 51.2862 65.0883 51.2188 65.1826 51.1514C65.2772 51.0906 65.5547 50.8817 65.8047 50.6992C66.048 50.51 66.4402 50.2256 66.6768 50.0566C66.9067 49.8875 67.4199 49.5091 67.8184 49.2119C68.2235 48.9148 68.73 48.5235 68.96 48.3477C69.1897 48.1652 69.6702 47.8136 70.0352 47.5703C70.4 47.3203 70.8726 47.0023 71.082 46.8672C71.2914 46.7321 71.5885 46.5499 71.7373 46.4688C71.886 46.3877 72.0286 46.2995 72.0557 46.2725C72.0835 46.2517 72.2182 46.1647 72.3594 46.084C72.5013 46.0029 72.6301 45.9413 72.6504 45.9346ZM86.4219 24.2432C86.4516 24.2432 86.4039 24.3113 86.3076 24.4121L76.3984 31.4678C76.3254 31.5118 76.2764 31.5403 76.2656 31.541C76.2454 31.541 76.0561 31.6767 75.8467 31.832C75.6306 31.9941 75.3869 32.1625 75.3057 32.2031C75.2043 32.2572 74.7719 32.2842 74.1367 32.2842C73.583 32.2842 73.0563 32.2574 72.9746 32.2236C72.8868 32.1831 71.6028 30.9534 70.1162 29.4736C67.7785 27.1562 67.4331 26.7906 67.5479 26.7432C67.6222 26.7094 70.8866 26.6825 81.9082 26.6758L82.4277 26.3984C82.7183 26.243 83.3067 25.9191 83.7324 25.6758C84.1578 25.4394 84.5698 25.2167 84.6445 25.1895C84.7189 25.1624 85.023 24.9931 85.3203 24.8174C85.6176 24.6417 85.8949 24.4931 85.9287 24.4863C85.9627 24.4794 86.0706 24.4258 86.165 24.3584C86.2596 24.2976 86.3746 24.2432 86.4219 24.2432Z" fill="url(#paint2_linear_1649_1125)"></path></g><g opacity="0.4" filter="url(#filter6_f_1649_1125)" style="mix-blend-mode: screen;"><path d="M85.9287 24.4864C85.9624 24.4797 86.0706 24.4256 86.1652 24.358C86.2598 24.2972 86.3747 24.2432 86.422 24.2432C86.4625 24.2432 86.3611 24.3716 86.1854 24.5337C86.003 24.6959 85.53 25.0946 85.1245 25.4257C84.7191 25.7636 84.2122 26.1893 84.0028 26.3718C83.7865 26.561 83.1919 27.007 82.6783 27.3719C82.1579 27.7368 81.2524 28.3247 80.6578 28.6761C80.0631 29.0275 79.5631 29.3113 79.5428 29.3113C79.5225 29.3113 79.4482 29.3721 79.3738 29.4465C79.2995 29.5208 79.2049 29.5816 79.1711 29.5816C79.1373 29.5816 79.0427 29.6424 78.9684 29.7235C78.8941 29.7979 78.4345 30.129 77.9548 30.4466C77.475 30.7642 76.9006 31.1426 76.6911 31.2845C76.4749 31.4264 76.2856 31.5413 76.2654 31.5413C76.2451 31.5413 76.0559 31.6765 75.8464 31.8319C75.6302 31.9941 75.3869 32.163 75.3058 32.2036C75.2044 32.2576 74.772 32.2846 74.1367 32.2846C73.5826 32.2846 73.0555 32.2576 72.9744 32.2238C72.8866 32.1833 71.6027 30.9534 70.116 29.4735C67.7779 27.1557 67.4333 26.7908 67.5481 26.7435C67.6225 26.7097 70.8864 26.6826 81.9079 26.6759L82.4283 26.3988C82.7188 26.2434 83.3067 25.919 83.7325 25.6758C84.1582 25.4392 84.5704 25.2163 84.6447 25.1892C84.7191 25.1622 85.0231 24.9933 85.3205 24.8176C85.6178 24.6419 85.8949 24.4932 85.9287 24.4864Z" fill="white"></path><path d="M85.9287 24.4864C85.9624 24.4797 86.0706 24.4256 86.1652 24.358C86.2598 24.2972 86.3747 24.2432 86.422 24.2432C86.4625 24.2432 86.3611 24.3716 86.1854 24.5337C86.003 24.6959 85.53 25.0946 85.1245 25.4257C84.7191 25.7636 84.2122 26.1893 84.0028 26.3718C83.7865 26.561 83.1919 27.007 82.6783 27.3719C82.1579 27.7368 81.2524 28.3247 80.6578 28.6761C80.0631 29.0275 79.5631 29.3113 79.5428 29.3113C79.5225 29.3113 79.4482 29.3721 79.3738 29.4465C79.2995 29.5208 79.2049 29.5816 79.1711 29.5816C79.1373 29.5816 79.0427 29.6424 78.9684 29.7235C78.8941 29.7979 78.4345 30.129 77.9548 30.4466C77.475 30.7642 76.9006 31.1426 76.6911 31.2845C76.4749 31.4264 76.2856 31.5413 76.2654 31.5413C76.2451 31.5413 76.0559 31.6765 75.8464 31.8319C75.6302 31.9941 75.3869 32.163 75.3058 32.2036C75.2044 32.2576 74.772 32.2846 74.1367 32.2846C73.5826 32.2846 73.0555 32.2576 72.9744 32.2238C72.8866 32.1833 71.6027 30.9534 70.116 29.4735C67.7779 27.1557 67.4333 26.7908 67.5481 26.7435C67.6225 26.7097 70.8864 26.6826 81.9079 26.6759L82.4283 26.3988C82.7188 26.2434 83.3067 25.919 83.7325 25.6758C84.1582 25.4392 84.5704 25.2163 84.6447 25.1892C84.7191 25.1622 85.0231 24.9933 85.3205 24.8176C85.6178 24.6419 85.8949 24.4932 85.9287 24.4864Z" fill="#5EFF03" fill-opacity="0.937255"></path><path d="M72.0554 46.2728C72.0824 46.2525 72.2176 46.1646 72.3595 46.0836C72.5014 46.0025 72.6298 45.9416 72.6501 45.9349C72.6704 45.9349 72.6771 46.0498 72.6636 46.1849C72.6568 46.3268 72.6163 46.5633 72.5757 46.712C72.5352 46.8607 72.4609 47.1445 72.4068 47.3337C72.319 47.6716 72.2919 47.7054 71.9203 47.8811C71.7108 47.9892 70.9269 48.3946 70.1836 48.7866C69.4402 49.1785 68.0414 49.8813 67.0751 50.3543C66.1088 50.8341 65.2641 51.2463 65.1965 51.2801C65.1357 51.3139 65.0681 51.3274 65.0478 51.3071C65.0276 51.2869 65.0884 51.2193 65.183 51.1517C65.2776 51.0909 65.5547 50.8814 65.8047 50.699C66.048 50.5097 66.4399 50.2259 66.6764 50.057C66.9062 49.8881 67.4197 49.5096 67.8184 49.2123C68.2239 48.915 68.7307 48.523 68.9605 48.3473C69.1902 48.1649 69.67 47.8135 70.0349 47.5702C70.3998 47.3202 70.8728 47.0026 71.0823 46.8674C71.2918 46.7323 71.5891 46.5498 71.7378 46.4687C71.8865 46.3876 72.0284 46.2998 72.0554 46.2728Z" fill="white"></path><path d="M72.0554 46.2728C72.0824 46.2525 72.2176 46.1646 72.3595 46.0836C72.5014 46.0025 72.6298 45.9416 72.6501 45.9349C72.6704 45.9349 72.6771 46.0498 72.6636 46.1849C72.6568 46.3268 72.6163 46.5633 72.5757 46.712C72.5352 46.8607 72.4609 47.1445 72.4068 47.3337C72.319 47.6716 72.2919 47.7054 71.9203 47.8811C71.7108 47.9892 70.9269 48.3946 70.1836 48.7866C69.4402 49.1785 68.0414 49.8813 67.0751 50.3543C66.1088 50.8341 65.2641 51.2463 65.1965 51.2801C65.1357 51.3139 65.0681 51.3274 65.0478 51.3071C65.0276 51.2869 65.0884 51.2193 65.183 51.1517C65.2776 51.0909 65.5547 50.8814 65.8047 50.699C66.048 50.5097 66.4399 50.2259 66.6764 50.057C66.9062 49.8881 67.4197 49.5096 67.8184 49.2123C68.2239 48.915 68.7307 48.523 68.9605 48.3473C69.1902 48.1649 69.67 47.8135 70.0349 47.5702C70.3998 47.3202 70.8728 47.0026 71.0823 46.8674C71.2918 46.7323 71.5891 46.5498 71.7378 46.4687C71.8865 46.3876 72.0284 46.2998 72.0554 46.2728Z" fill="#5EFF03" fill-opacity="0.937255"></path></g><g opacity="0.07"><path d="M86.9023 23.2989C86.9401 23.2913 87.0612 23.2309 87.167 23.1553C87.2729 23.0873 87.4015 23.0269 87.4544 23.0269C87.4998 23.0269 87.3864 23.1704 87.1897 23.3518C86.9855 23.5331 86.4561 23.979 86.0023 24.3492C85.5485 24.727 84.9812 25.2031 84.7468 25.4071C84.5048 25.6187 83.8392 26.1174 83.2644 26.5254C82.682 26.9335 81.6685 27.5909 81.0029 27.9838C80.3374 28.3767 79.7777 28.6941 79.755 28.6941C79.7323 28.6941 79.6491 28.7621 79.5659 28.8452C79.4827 28.9284 79.3768 28.9964 79.339 28.9964C79.3012 28.9964 79.1953 29.0644 79.1121 29.155C79.0289 29.2382 78.5146 29.6084 77.9776 29.9636C77.4406 30.3187 76.7977 30.7419 76.5633 30.9006C76.3213 31.0592 76.1095 31.1877 76.0868 31.1877C76.0641 31.1877 75.8523 31.3388 75.6179 31.5126C75.3758 31.694 75.1036 31.8829 75.0128 31.9282C74.8994 31.9887 74.4153 32.0189 73.7044 32.0189C73.0842 32.0189 72.4942 31.9887 72.4035 31.9509C72.3051 31.9056 70.8681 30.5303 69.2042 28.8755C66.5873 26.2836 66.2016 25.8756 66.3301 25.8227C66.4133 25.7849 70.0664 25.7547 82.4022 25.7471L82.9845 25.4373C83.3098 25.2635 83.9678 24.9008 84.4443 24.6288C84.9207 24.3643 85.3821 24.115 85.4653 24.0847C85.5485 24.0545 85.8888 23.8656 86.2216 23.6691C86.5544 23.4727 86.8645 23.3064 86.9023 23.2989Z" fill="white"></path><path d="M84.1039 26.9562C85.3745 26.1325 85.7376 25.9285 86.0174 25.8907C86.2141 25.868 86.562 25.8605 86.7889 25.8832C87.0158 25.8983 87.4771 26.0041 87.8099 26.1023C88.1427 26.2081 88.6192 26.397 88.8688 26.5179C89.1184 26.6463 89.4814 26.8579 89.6781 26.9864C89.8671 27.1148 90.2377 27.4549 90.4873 27.7496C90.7369 28.0443 91.047 28.4674 91.1605 28.6941C91.2815 28.9208 91.4554 29.3213 91.5386 29.5858C91.6294 29.8427 91.7428 30.3716 91.7882 30.757C91.8412 31.165 91.8563 31.8829 91.826 32.5101C91.8033 33.1524 91.7201 33.8098 91.637 34.1725C91.5538 34.5049 91.3798 35.0566 91.2512 35.4041C91.1302 35.7442 90.8958 36.2731 90.7369 36.5754C90.5781 36.8701 90.3814 37.2252 90.3058 37.3461C90.2226 37.467 90.0033 37.7617 89.8142 37.9884C89.6251 38.2151 89.3226 38.54 89.1335 38.7138C88.9444 38.8801 88.6419 39.137 88.4528 39.2881C88.2637 39.4392 87.9461 39.6433 87.7343 39.749C87.5301 39.8473 87.0838 40.0211 86.7511 40.1269C86.4183 40.2326 85.9796 40.3384 85.7678 40.3687C85.5636 40.3989 84.8375 40.4518 82.9316 40.5198L83.2946 40.9429C83.4913 41.1696 83.7862 41.5248 83.9526 41.7288C84.119 41.9253 84.3913 42.2502 84.5501 42.4391C84.7165 42.628 84.9056 42.8547 84.9661 42.9303C85.0342 43.0058 85.3443 43.3685 85.6619 43.7237C85.972 44.0788 86.4863 44.6758 86.7964 45.0385C87.099 45.4087 87.5755 45.9755 87.8477 46.3004C88.12 46.6253 88.8612 47.5018 89.4965 48.2575C90.1243 49.0056 90.6462 49.663 90.6462 49.7007C90.6462 49.7536 89.2621 49.7763 82.6669 49.7763L81.9862 48.9753C81.608 48.5371 81.1996 48.0459 81.0786 47.8797C80.9576 47.721 80.4962 47.1769 80.0575 46.6631C79.6264 46.1493 78.7566 45.1216 78.1289 44.3811C77.5087 43.633 76.8734 42.8849 76.7297 42.7036C76.586 42.5222 76.2078 42.0688 75.3305 41.0185L74.5363 41.0109C74.0976 41.0109 73.7044 41.0412 73.6514 41.0714C73.5985 41.1016 73.4699 41.5172 73.364 41.9933C73.2581 42.4693 73.0463 43.3534 72.9026 43.9579C72.7589 44.5624 72.5774 45.1669 72.4942 45.3029C72.411 45.4314 72.2522 45.6052 72.1388 45.6732C72.0177 45.7488 71.7379 45.9528 71.511 46.1266C71.2841 46.3004 70.8076 46.6631 70.4521 46.9427C70.0967 47.2147 69.4916 47.6908 69.0983 47.9855C68.7126 48.2877 68.3193 48.5824 68.2285 48.6429C68.1378 48.7033 67.926 48.862 67.7596 48.9904C67.6008 49.1189 67.2831 49.3456 67.0713 49.5043C66.6856 49.7687 66.6478 49.7763 65.9898 49.7763C65.5133 49.7763 65.3015 49.7461 65.2788 49.6856C65.2561 49.6327 65.3091 49.3531 65.3847 49.0585C65.4604 48.7638 65.7629 47.6152 66.0579 46.4893C66.3528 45.3634 66.7007 44.0562 66.8217 43.5801C66.9428 43.1041 67.147 42.288 67.2755 41.7666C67.4041 41.2452 67.5403 40.7163 67.5781 40.5954C67.6159 40.4744 67.7672 39.8926 67.9109 39.3108C68.0621 38.7289 68.1831 38.1924 68.1831 38.1244C68.1831 38.0111 68.1453 37.996 67.9789 38.0564C67.8579 38.0942 67.4798 38.2378 67.1243 38.3813C66.7688 38.5249 65.9973 38.8574 65.4074 39.1068C64.8099 39.3637 64.3107 39.5601 64.288 39.5375C64.2653 39.5148 64.3864 39.4317 64.5528 39.3486C64.7191 39.2654 64.8704 39.1596 64.8931 39.1219C64.9158 39.0841 65.4528 38.6609 66.0881 38.1924C66.7159 37.7239 67.4646 37.1799 67.752 36.9834C68.0319 36.787 68.2739 36.6283 68.2966 36.6283C68.3193 36.6283 68.5159 36.4847 68.7353 36.3033C68.947 36.122 69.2647 35.8877 69.4311 35.7744C69.5975 35.6611 69.8017 35.5175 69.8849 35.457C70.021 35.3588 70.8908 35.3437 77.1078 35.3437C83.219 35.3437 84.2325 35.3286 84.5804 35.2303C84.83 35.1623 85.072 35.0188 85.2384 34.8525C85.3821 34.709 85.5863 34.4294 85.6846 34.2329C85.783 34.0289 85.8737 33.7644 85.8888 33.6435C85.904 33.5226 85.8813 33.2808 85.8435 33.1146C85.7981 32.9181 85.6619 32.699 85.4502 32.495C85.2611 32.306 85.0039 32.1398 84.8451 32.0945C84.6787 32.0567 83.0072 32.0189 80.8366 32.0189C78.7869 32.0189 77.0927 31.9962 77.07 31.966C77.0549 31.9282 77.1759 31.7847 77.3499 31.6411C77.5238 31.4975 77.8037 31.2935 77.9776 31.1877C78.1516 31.0819 78.3936 30.9308 78.5146 30.8477C78.6356 30.7645 79.0592 30.4623 79.4525 30.1676C79.8458 29.8729 80.5265 29.3969 80.9651 29.1097C81.3962 28.815 81.9332 28.4448 82.145 28.2785C82.3643 28.1123 83.2492 27.5153 84.1039 26.9562Z" fill="white"></path><path d="M71.3749 47.6605C71.4051 47.6379 71.5564 47.5396 71.7152 47.449C71.874 47.3583 72.0177 47.2903 72.0404 47.2827C72.0631 47.2827 72.0707 47.4112 72.0556 47.5623C72.048 47.721 72.0026 47.9855 71.9572 48.1517C71.9119 48.3179 71.8287 48.6353 71.7681 48.8469C71.6698 49.2247 71.6396 49.2625 71.2236 49.4589C70.9891 49.5798 70.1118 50.0332 69.2798 50.4715C68.4479 50.9098 66.8823 51.6956 65.8007 52.2246C64.7191 52.7611 63.7737 53.222 63.6981 53.2598C63.63 53.2976 63.5544 53.3127 63.5317 53.29C63.509 53.2673 63.5771 53.1918 63.683 53.1162C63.7889 53.0482 64.099 52.814 64.3788 52.6099C64.6511 52.3984 65.0897 52.081 65.3545 51.8921C65.6116 51.7032 66.1864 51.28 66.6327 50.9475C67.0865 50.6151 67.6537 50.1768 67.9109 49.9803C68.168 49.7763 68.705 49.3834 69.1134 49.1113C69.5218 48.8318 70.0513 48.4766 70.2857 48.3255C70.5202 48.1744 70.853 47.9703 71.0194 47.8797C71.1858 47.789 71.3446 47.6908 71.3749 47.6605Z" fill="white"></path></g><g opacity="0.07"><path d="M86.9023 23.2989C86.9401 23.2913 87.0612 23.2309 87.167 23.1553C87.2729 23.0873 87.4015 23.0269 87.4544 23.0269C87.4998 23.0269 87.3864 23.1704 87.1897 23.3518C86.9855 23.5331 86.4561 23.979 86.0023 24.3492C85.5485 24.727 84.9812 25.2031 84.7468 25.4071C84.5048 25.6187 83.8392 26.1174 83.2644 26.5254C82.682 26.9335 81.6685 27.5909 81.0029 27.9838C80.3374 28.3767 79.7777 28.6941 79.755 28.6941C79.7323 28.6941 79.6491 28.7621 79.5659 28.8452C79.4827 28.9284 79.3768 28.9964 79.339 28.9964C79.3012 28.9964 79.1953 29.0644 79.1121 29.155C79.0289 29.2382 78.5146 29.6084 77.9776 29.9636C77.4406 30.3187 76.7977 30.7419 76.5633 30.9006C76.3213 31.0592 76.1095 31.1877 76.0868 31.1877C76.0641 31.1877 75.8523 31.3388 75.6179 31.5126C75.3758 31.694 75.1036 31.8829 75.0128 31.9282C74.8994 31.9887 74.4153 32.0189 73.7044 32.0189C73.0842 32.0189 72.4942 31.9887 72.4035 31.9509C72.3051 31.9056 70.8681 30.5303 69.2042 28.8755C66.5873 26.2836 66.2016 25.8756 66.3301 25.8227C66.4133 25.7849 70.0664 25.7547 82.4022 25.7471L82.9845 25.4373C83.3098 25.2635 83.9678 24.9008 84.4443 24.6288C84.9207 24.3643 85.3821 24.115 85.4653 24.0847C85.5485 24.0545 85.8888 23.8656 86.2216 23.6691C86.5544 23.4727 86.8645 23.3064 86.9023 23.2989Z" fill="white"></path><path d="M86.9023 23.2989C86.9401 23.2913 87.0612 23.2309 87.167 23.1553C87.2729 23.0873 87.4015 23.0269 87.4544 23.0269C87.4998 23.0269 87.3864 23.1704 87.1897 23.3518C86.9855 23.5331 86.4561 23.979 86.0023 24.3492C85.5485 24.727 84.9812 25.2031 84.7468 25.4071C84.5048 25.6187 83.8392 26.1174 83.2644 26.5254C82.682 26.9335 81.6685 27.5909 81.0029 27.9838C80.3374 28.3767 79.7777 28.6941 79.755 28.6941C79.7323 28.6941 79.6491 28.7621 79.5659 28.8452C79.4827 28.9284 79.3768 28.9964 79.339 28.9964C79.3012 28.9964 79.1953 29.0644 79.1121 29.155C79.0289 29.2382 78.5146 29.6084 77.9776 29.9636C77.4406 30.3187 76.7977 30.7419 76.5633 30.9006C76.3213 31.0592 76.1095 31.1877 76.0868 31.1877C76.0641 31.1877 75.8523 31.3388 75.6179 31.5126C75.3758 31.694 75.1036 31.8829 75.0128 31.9282C74.8994 31.9887 74.4153 32.0189 73.7044 32.0189C73.0842 32.0189 72.4942 31.9887 72.4035 31.9509C72.3051 31.9056 70.8681 30.5303 69.2042 28.8755C66.5873 26.2836 66.2016 25.8756 66.3301 25.8227C66.4133 25.7849 70.0664 25.7547 82.4022 25.7471L82.9845 25.4373C83.3098 25.2635 83.9678 24.9008 84.4443 24.6288C84.9207 24.3643 85.3821 24.115 85.4653 24.0847C85.5485 24.0545 85.8888 23.8656 86.2216 23.6691C86.5544 23.4727 86.8645 23.3064 86.9023 23.2989Z" fill="#5EFF03" fill-opacity="0.937255"></path><path d="M71.3749 47.6605C71.4051 47.6379 71.5564 47.5396 71.7152 47.449C71.874 47.3583 72.0177 47.2903 72.0404 47.2827C72.0631 47.2827 72.0707 47.4112 72.0556 47.5623C72.048 47.721 72.0026 47.9855 71.9572 48.1517C71.9119 48.3179 71.8287 48.6353 71.7681 48.8469C71.6698 49.2247 71.6396 49.2625 71.2236 49.4589C70.9891 49.5798 70.1118 50.0332 69.2798 50.4715C68.4479 50.9098 66.8823 51.6956 65.8007 52.2246C64.7191 52.7611 63.7737 53.222 63.6981 53.2598C63.63 53.2976 63.5544 53.3127 63.5317 53.29C63.509 53.2673 63.5771 53.1918 63.683 53.1162C63.7889 53.0482 64.099 52.814 64.3788 52.6099C64.6511 52.3984 65.0897 52.081 65.3545 51.8921C65.6116 51.7032 66.1864 51.28 66.6327 50.9475C67.0865 50.6151 67.6537 50.1768 67.9109 49.9803C68.168 49.7763 68.705 49.3834 69.1134 49.1113C69.5218 48.8318 70.0513 48.4766 70.2857 48.3255C70.5202 48.1744 70.853 47.9703 71.0194 47.8797C71.1858 47.789 71.3446 47.6908 71.3749 47.6605Z" fill="white"></path><path d="M71.3749 47.6605C71.4051 47.6379 71.5564 47.5396 71.7152 47.449C71.874 47.3583 72.0177 47.2903 72.0404 47.2827C72.0631 47.2827 72.0707 47.4112 72.0556 47.5623C72.048 47.721 72.0026 47.9855 71.9572 48.1517C71.9119 48.3179 71.8287 48.6353 71.7681 48.8469C71.6698 49.2247 71.6396 49.2625 71.2236 49.4589C70.9891 49.5798 70.1118 50.0332 69.2798 50.4715C68.4479 50.9098 66.8823 51.6956 65.8007 52.2246C64.7191 52.7611 63.7737 53.222 63.6981 53.2598C63.63 53.2976 63.5544 53.3127 63.5317 53.29C63.509 53.2673 63.5771 53.1918 63.683 53.1162C63.7889 53.0482 64.099 52.814 64.3788 52.6099C64.6511 52.3984 65.0897 52.081 65.3545 51.8921C65.6116 51.7032 66.1864 51.28 66.6327 50.9475C67.0865 50.6151 67.6537 50.1768 67.9109 49.9803C68.168 49.7763 68.705 49.3834 69.1134 49.1113C69.5218 48.8318 70.0513 48.4766 70.2857 48.3255C70.5202 48.1744 70.853 47.9703 71.0194 47.8797C71.1858 47.789 71.3446 47.6908 71.3749 47.6605Z" fill="#5EFF03" fill-opacity="0.937255"></path></g><g opacity="0.07" filter="url(#filter7_f_1649_1125)" style="mix-blend-mode: screen;"><path d="M86.9023 23.2989C86.9401 23.2913 87.0612 23.2309 87.167 23.1553C87.2729 23.0873 87.4015 23.0269 87.4544 23.0269C87.4998 23.0269 87.3864 23.1704 87.1897 23.3518C86.9855 23.5331 86.4561 23.979 86.0023 24.3492C85.5485 24.727 84.9812 25.2031 84.7468 25.4071C84.5048 25.6187 83.8392 26.1174 83.2644 26.5254C82.682 26.9335 81.6685 27.5909 81.0029 27.9838C80.3374 28.3767 79.7777 28.6941 79.755 28.6941C79.7323 28.6941 79.6491 28.7621 79.5659 28.8452C79.4827 28.9284 79.3768 28.9964 79.339 28.9964C79.3012 28.9964 79.1953 29.0644 79.1121 29.155C79.0289 29.2382 78.5146 29.6084 77.9776 29.9636C77.4406 30.3187 76.7977 30.7419 76.5633 30.9006C76.3213 31.0592 76.1095 31.1877 76.0868 31.1877C76.0641 31.1877 75.8523 31.3388 75.6179 31.5126C75.3758 31.694 75.1036 31.8829 75.0128 31.9282C74.8994 31.9887 74.4153 32.0189 73.7044 32.0189C73.0842 32.0189 72.4942 31.9887 72.4035 31.9509C72.3051 31.9056 70.8681 30.5303 69.2042 28.8755C66.5873 26.2836 66.2016 25.8756 66.3301 25.8227C66.4133 25.7849 70.0664 25.7547 82.4022 25.7471L82.9845 25.4373C83.3098 25.2635 83.9678 24.9008 84.4443 24.6288C84.9207 24.3643 85.3821 24.115 85.4653 24.0847C85.5485 24.0545 85.8888 23.8656 86.2216 23.6691C86.5544 23.4727 86.8645 23.3064 86.9023 23.2989Z" fill="white"></path><path d="M86.9023 23.2989C86.9401 23.2913 87.0612 23.2309 87.167 23.1553C87.2729 23.0873 87.4015 23.0269 87.4544 23.0269C87.4998 23.0269 87.3864 23.1704 87.1897 23.3518C86.9855 23.5331 86.4561 23.979 86.0023 24.3492C85.5485 24.727 84.9812 25.2031 84.7468 25.4071C84.5048 25.6187 83.8392 26.1174 83.2644 26.5254C82.682 26.9335 81.6685 27.5909 81.0029 27.9838C80.3374 28.3767 79.7777 28.6941 79.755 28.6941C79.7323 28.6941 79.6491 28.7621 79.5659 28.8452C79.4827 28.9284 79.3768 28.9964 79.339 28.9964C79.3012 28.9964 79.1953 29.0644 79.1121 29.155C79.0289 29.2382 78.5146 29.6084 77.9776 29.9636C77.4406 30.3187 76.7977 30.7419 76.5633 30.9006C76.3213 31.0592 76.1095 31.1877 76.0868 31.1877C76.0641 31.1877 75.8523 31.3388 75.6179 31.5126C75.3758 31.694 75.1036 31.8829 75.0128 31.9282C74.8994 31.9887 74.4153 32.0189 73.7044 32.0189C73.0842 32.0189 72.4942 31.9887 72.4035 31.9509C72.3051 31.9056 70.8681 30.5303 69.2042 28.8755C66.5873 26.2836 66.2016 25.8756 66.3301 25.8227C66.4133 25.7849 70.0664 25.7547 82.4022 25.7471L82.9845 25.4373C83.3098 25.2635 83.9678 24.9008 84.4443 24.6288C84.9207 24.3643 85.3821 24.115 85.4653 24.0847C85.5485 24.0545 85.8888 23.8656 86.2216 23.6691C86.5544 23.4727 86.8645 23.3064 86.9023 23.2989Z" fill="#5EFF03" fill-opacity="0.937255"></path><path d="M71.3749 47.6605C71.4051 47.6379 71.5564 47.5396 71.7152 47.449C71.874 47.3583 72.0177 47.2903 72.0404 47.2827C72.0631 47.2827 72.0707 47.4112 72.0556 47.5623C72.048 47.721 72.0026 47.9855 71.9572 48.1517C71.9119 48.3179 71.8287 48.6353 71.7681 48.8469C71.6698 49.2247 71.6396 49.2625 71.2236 49.4589C70.9891 49.5798 70.1118 50.0332 69.2798 50.4715C68.4479 50.9098 66.8823 51.6956 65.8007 52.2246C64.7191 52.7611 63.7737 53.222 63.6981 53.2598C63.63 53.2976 63.5544 53.3127 63.5317 53.29C63.509 53.2673 63.5771 53.1918 63.683 53.1162C63.7889 53.0482 64.099 52.814 64.3788 52.6099C64.6511 52.3984 65.0897 52.081 65.3545 51.8921C65.6116 51.7032 66.1864 51.28 66.6327 50.9475C67.0865 50.6151 67.6537 50.1768 67.9109 49.9803C68.168 49.7763 68.705 49.3834 69.1134 49.1113C69.5218 48.8318 70.0513 48.4766 70.2857 48.3255C70.5202 48.1744 70.853 47.9703 71.0194 47.8797C71.1858 47.789 71.3446 47.6908 71.3749 47.6605Z" fill="white"></path><path d="M71.3749 47.6605C71.4051 47.6379 71.5564 47.5396 71.7152 47.449C71.874 47.3583 72.0177 47.2903 72.0404 47.2827C72.0631 47.2827 72.0707 47.4112 72.0556 47.5623C72.048 47.721 72.0026 47.9855 71.9572 48.1517C71.9119 48.3179 71.8287 48.6353 71.7681 48.8469C71.6698 49.2247 71.6396 49.2625 71.2236 49.4589C70.9891 49.5798 70.1118 50.0332 69.2798 50.4715C68.4479 50.9098 66.8823 51.6956 65.8007 52.2246C64.7191 52.7611 63.7737 53.222 63.6981 53.2598C63.63 53.2976 63.5544 53.3127 63.5317 53.29C63.509 53.2673 63.5771 53.1918 63.683 53.1162C63.7889 53.0482 64.099 52.814 64.3788 52.6099C64.6511 52.3984 65.0897 52.081 65.3545 51.8921C65.6116 51.7032 66.1864 51.28 66.6327 50.9475C67.0865 50.6151 67.6537 50.1768 67.9109 49.9803C68.168 49.7763 68.705 49.3834 69.1134 49.1113C69.5218 48.8318 70.0513 48.4766 70.2857 48.3255C70.5202 48.1744 70.853 47.9703 71.0194 47.8797C71.1858 47.789 71.3446 47.6908 71.3749 47.6605Z" fill="#5EFF03" fill-opacity="0.937255"></path></g><g filter="url(#filter8_ii_1649_1125)"><path d="M90.488 45.9388L92.6747 39.579C92.7972 39.2118 92.9752 38.8724 93.2089 38.5608C93.4426 38.2381 93.7208 37.9543 94.0435 37.7095C94.3774 37.4646 94.7502 37.2755 95.1619 37.1419C95.5737 36.9973 96.0132 36.9249 96.4806 36.9249H103.875C104.309 36.9249 104.699 36.9917 105.044 37.1252C105.4 37.2476 105.684 37.4257 105.895 37.6594C106.118 37.8931 106.262 38.1713 106.329 38.494C106.396 38.8167 106.363 39.1784 106.229 39.579L104.026 45.9388C103.903 46.2949 103.725 46.6343 103.491 46.9571C103.269 47.2798 102.991 47.5636 102.657 47.8084C102.334 48.0532 101.967 48.2479 101.555 48.3926C101.143 48.5373 100.698 48.6096 100.22 48.6096H92.8417C92.4077 48.6096 92.0126 48.5484 91.6565 48.426C91.3115 48.2925 91.0278 48.1088 90.8052 47.8752C90.5826 47.6415 90.438 47.3633 90.3712 47.0405C90.3044 46.7067 90.3434 46.3394 90.488 45.9388ZM94.7112 45.7886H99.9026C100.081 45.7886 100.186 45.7163 100.22 45.5716L102.173 39.9629C102.217 39.8183 102.156 39.7459 101.989 39.7459H95.1953C95.1063 39.7459 95.0451 39.7905 95.0117 39.8795C94.9783 39.9574 94.995 40.0241 95.0618 40.0798L96.0967 41.0146L94.5276 45.5716C94.4831 45.7163 94.5443 45.7886 94.7112 45.7886ZM106.738 36.9249H111.796C111.873 37.1364 111.946 37.3478 112.013 37.5592C112.079 37.7595 112.152 37.9599 112.23 38.1602C112.352 38.494 112.474 38.839 112.597 39.1951C112.719 39.5401 112.819 39.8238 112.897 40.0464C112.819 40.4025 112.753 40.7252 112.697 41.0146C112.652 41.3039 112.602 41.5654 112.547 41.7991C114.238 40.2523 115.913 38.6943 117.571 37.1252C117.705 36.9917 117.872 36.9249 118.072 36.9249H122.512C122.223 37.1809 121.839 37.5258 121.36 37.9599C120.893 38.3827 120.375 38.8612 119.808 39.3954L114.216 44.52L112.981 48.1088C112.925 48.2646 112.83 48.3871 112.697 48.4761C112.563 48.5651 112.419 48.6096 112.263 48.6096H108.858C108.991 48.2313 109.136 47.8084 109.292 47.341C109.459 46.8736 109.62 46.4285 109.776 46.0056C109.865 45.7608 109.948 45.516 110.026 45.2711C110.115 45.0263 110.204 44.7759 110.293 44.52C110.249 44.4087 110.204 44.2918 110.16 44.1694C110.115 44.047 110.065 43.9246 110.009 43.8022L109.325 42.0495C109.192 41.6934 109.052 41.3373 108.908 40.9812C108.774 40.6251 108.635 40.2578 108.49 39.8795C108.19 39.145 107.94 38.5107 107.739 37.9765L106.638 37.2588C106.56 37.2031 106.532 37.1364 106.554 37.0585C106.587 36.9694 106.649 36.9249 106.738 36.9249ZM120.638 48.6096C120.749 48.2646 120.899 47.8195 121.088 47.2742C121.277 46.7178 121.489 46.1113 121.723 45.4548C121.956 44.7871 122.196 44.0915 122.44 43.3682C122.696 42.6449 122.941 41.9493 123.175 41.2816C123.408 40.6028 123.625 39.9741 123.826 39.3954C124.026 38.8167 124.187 38.3382 124.31 37.9599L123.292 37.2588C123.214 37.2031 123.186 37.1364 123.208 37.0585C123.242 36.9694 123.303 36.9249 123.392 36.9249H138.064C137.975 37.1809 137.836 37.5871 137.647 38.1435C137.458 38.6999 137.241 39.3342 136.996 40.0464C136.751 40.7586 136.495 41.5153 136.228 42.3166C135.961 43.1178 135.7 43.8912 135.444 44.6368C135.199 45.3824 134.971 46.0612 134.759 46.6733C134.559 47.2854 134.403 47.7639 134.292 48.1088C134.181 48.4427 133.947 48.6096 133.591 48.6096H130.136L131.17 45.7886H125.545L124.744 48.1088C124.633 48.4427 124.399 48.6096 124.043 48.6096H120.638ZM126.363 43.4183H131.988L133.107 40.1466C133.207 39.8795 133.09 39.7459 132.756 39.7459H126.764C126.675 39.7459 126.613 39.7905 126.58 39.8795C126.558 39.9574 126.58 40.0241 126.647 40.0798L127.315 40.6807L126.363 43.4183Z" fill="white"></path><path d="M137.227 48.6096C137.75 47.0962 138.195 45.8109 138.562 44.7537C138.941 43.6854 139.269 42.7506 139.547 41.9493C139.825 41.1481 140.07 40.4359 140.282 39.8127C140.504 39.1895 140.721 38.5663 140.933 37.9432L139.914 37.2588C139.837 37.2031 139.814 37.1364 139.848 37.0585C139.881 36.9694 139.942 36.9249 140.031 36.9249H145.206C144.85 37.9487 144.533 38.8612 144.254 39.6625C143.976 40.4526 143.731 41.1592 143.52 41.7824C143.309 42.3945 143.119 42.9342 142.952 43.4016C142.797 43.8578 142.658 44.2696 142.535 44.6368L142.385 44.7704C142.329 44.826 142.24 44.9095 142.118 45.0207C141.995 45.1209 141.829 45.2656 141.617 45.4548C141.561 45.5104 141.545 45.5827 141.567 45.6718C141.6 45.7496 141.662 45.7886 141.751 45.7886H148.895C148.85 45.911 148.789 46.0724 148.711 46.2727C148.645 46.4619 148.572 46.6677 148.494 46.8903C148.416 47.1017 148.339 47.3187 148.261 47.5413C148.194 47.7527 148.133 47.9419 148.077 48.1088C147.966 48.4427 147.732 48.6096 147.376 48.6096H137.227Z" fill="white"></path><path d="M137.227 48.6096C137.75 47.0962 138.195 45.8109 138.562 44.7537C138.941 43.6854 139.269 42.7506 139.547 41.9493C139.825 41.1481 140.07 40.4359 140.282 39.8127C140.504 39.1895 140.721 38.5663 140.933 37.9432L139.914 37.2588C139.837 37.2031 139.814 37.1364 139.848 37.0585C139.881 36.9694 139.942 36.9249 140.031 36.9249H145.206C144.85 37.9487 144.533 38.8612 144.254 39.6625C143.976 40.4526 143.731 41.1592 143.52 41.7824C143.309 42.3945 143.119 42.9342 142.952 43.4016C142.797 43.8578 142.658 44.2696 142.535 44.6368L142.385 44.7704C142.329 44.826 142.24 44.9095 142.118 45.0207C141.995 45.1209 141.829 45.2656 141.617 45.4548C141.561 45.5104 141.545 45.5827 141.567 45.6718C141.6 45.7496 141.662 45.7886 141.751 45.7886H148.895C148.85 45.911 148.789 46.0724 148.711 46.2727C148.645 46.4619 148.572 46.6677 148.494 46.8903C148.416 47.1017 148.339 47.3187 148.261 47.5413C148.194 47.7527 148.133 47.9419 148.077 48.1088C147.966 48.4427 147.732 48.6096 147.376 48.6096H137.227Z" fill="url(#paint3_linear_1649_1125)"></path></g><g opacity="0.1" filter="url(#filter9_ii_1649_1125)"><path d="M89.4153 45.0293L91.738 38.2739C91.868 37.8838 92.0572 37.5233 92.3054 37.1923C92.5536 36.8495 92.8491 36.5481 93.1919 36.2881C93.5465 36.028 93.9425 35.8271 94.3799 35.6852C94.8172 35.5315 95.2841 35.4547 95.7806 35.4547H103.635C104.096 35.4547 104.51 35.5256 104.876 35.6675C105.255 35.7975 105.556 35.9866 105.781 36.2349C106.017 36.4831 106.171 36.7786 106.242 37.1214C106.313 37.4642 106.277 37.8484 106.135 38.2739L103.795 45.0293C103.665 45.4076 103.476 45.7681 103.228 46.1109C102.991 46.4537 102.696 46.7551 102.341 47.0151C101.998 47.2752 101.608 47.482 101.171 47.6357C100.733 47.7894 100.261 47.8662 99.7523 47.8662H91.9153C91.4543 47.8662 91.0347 47.8012 90.6564 47.6712C90.29 47.5293 89.9886 47.3343 89.7522 47.0861C89.5158 46.8378 89.3621 46.5423 89.2912 46.1995C89.2202 45.8449 89.2616 45.4548 89.4153 45.0293ZM93.9012 44.8697H99.4154C99.6045 44.8697 99.7168 44.7929 99.7523 44.6392L101.827 38.6817C101.874 38.528 101.809 38.4512 101.632 38.4512H94.4153C94.3208 38.4512 94.2558 38.4985 94.2203 38.5931C94.1848 38.6758 94.2026 38.7467 94.2735 38.8058L95.3728 39.7987L93.7061 44.6392C93.6588 44.7929 93.7238 44.8697 93.9012 44.8697ZM106.676 35.4547H112.048C112.131 35.6793 112.208 35.9039 112.279 36.1285C112.35 36.3412 112.426 36.554 112.509 36.7668C112.639 37.1214 112.769 37.4878 112.899 37.8661C113.029 38.2325 113.136 38.5339 113.218 38.7704C113.136 39.1486 113.065 39.4914 113.006 39.7987C112.958 40.1061 112.905 40.3839 112.846 40.6321C114.643 38.989 116.422 37.3342 118.183 35.6675C118.325 35.5256 118.502 35.4547 118.715 35.4547H123.431C123.124 35.7266 122.716 36.093 122.208 36.554C121.711 37.0032 121.162 37.5115 120.559 38.0789L114.619 43.5222L113.307 47.3343C113.248 47.4998 113.147 47.6298 113.006 47.7244C112.864 47.8189 112.71 47.8662 112.545 47.8662H108.928C109.069 47.4643 109.223 47.0151 109.389 46.5187C109.566 46.0222 109.737 45.5494 109.903 45.1002C109.997 44.8402 110.086 44.5801 110.169 44.3201C110.263 44.06 110.358 43.7941 110.452 43.5222C110.405 43.404 110.358 43.2799 110.311 43.1498C110.263 43.0198 110.21 42.8898 110.151 42.7598L109.424 40.898C109.282 40.5198 109.134 40.1415 108.981 39.7633C108.839 39.385 108.691 38.9949 108.537 38.5931C108.218 37.8129 107.952 37.1391 107.74 36.5717L106.569 35.8093C106.487 35.7502 106.457 35.6793 106.481 35.5966C106.516 35.502 106.581 35.4547 106.676 35.4547ZM121.44 47.8662C121.558 47.4998 121.718 47.027 121.919 46.4478C122.12 45.8567 122.344 45.2125 122.593 44.5151C122.841 43.8059 123.095 43.0671 123.355 42.2988C123.627 41.5304 123.887 40.7917 124.135 40.0824C124.383 39.3614 124.614 38.6935 124.827 38.0789C125.039 37.4642 125.211 36.9559 125.341 36.554L124.259 35.8093C124.177 35.7502 124.147 35.6793 124.171 35.5966C124.206 35.502 124.271 35.4547 124.366 35.4547H139.951C139.856 35.7266 139.709 36.158 139.508 36.7491C139.307 37.3401 139.076 38.0138 138.816 38.7704C138.556 39.5269 138.284 40.3307 138.001 41.1817C137.717 42.0328 137.439 42.8543 137.167 43.6463C136.907 44.4383 136.665 45.1593 136.44 45.8094C136.228 46.4596 136.062 46.9679 135.944 47.3343C135.826 47.6889 135.577 47.8662 135.199 47.8662H131.529L132.628 44.8697H126.653L125.802 47.3343C125.684 47.6889 125.435 47.8662 125.057 47.8662H121.44ZM127.522 42.352H133.497L134.685 38.8767C134.791 38.593 134.667 38.4512 134.313 38.4512H127.947C127.853 38.4512 127.788 38.4985 127.752 38.5931C127.729 38.6758 127.752 38.7467 127.823 38.8058L128.532 39.4441L127.522 42.352Z" fill="white"></path><path d="M139.061 47.8662C139.617 46.2586 140.09 44.8934 140.48 43.7704C140.882 42.6357 141.23 41.6427 141.526 40.7917C141.821 39.9406 142.082 39.1841 142.306 38.5221C142.543 37.8602 142.773 37.1982 142.998 36.5363L141.916 35.8093C141.833 35.7502 141.81 35.6793 141.845 35.5966C141.881 35.502 141.946 35.4547 142.04 35.4547H147.537C147.158 36.5422 146.822 37.5115 146.526 38.3626C146.231 39.2018 145.97 39.9524 145.746 40.6144C145.521 41.2645 145.32 41.8378 145.143 42.3342C144.978 42.8189 144.83 43.2562 144.7 43.6463L144.54 43.7881C144.481 43.8473 144.387 43.9359 144.257 44.0541C144.126 44.1605 143.949 44.3142 143.725 44.5151C143.665 44.5742 143.648 44.651 143.671 44.7456C143.707 44.8283 143.772 44.8697 143.866 44.8697H151.455C151.408 44.9997 151.343 45.1711 151.26 45.3839C151.189 45.5849 151.112 45.8035 151.03 46.0399C150.947 46.2645 150.864 46.495 150.781 46.7314C150.71 46.956 150.645 47.157 150.586 47.3343C150.468 47.6889 150.22 47.8662 149.842 47.8662H139.061Z" fill="white"></path><path d="M139.061 47.8662C139.617 46.2586 140.09 44.8934 140.48 43.7704C140.882 42.6357 141.23 41.6427 141.526 40.7917C141.821 39.9406 142.082 39.1841 142.306 38.5221C142.543 37.8602 142.773 37.1982 142.998 36.5363L141.916 35.8093C141.833 35.7502 141.81 35.6793 141.845 35.5966C141.881 35.502 141.946 35.4547 142.04 35.4547H147.537C147.158 36.5422 146.822 37.5115 146.526 38.3626C146.231 39.2018 145.97 39.9524 145.746 40.6144C145.521 41.2645 145.32 41.8378 145.143 42.3342C144.978 42.8189 144.83 43.2562 144.7 43.6463L144.54 43.7881C144.481 43.8473 144.387 43.9359 144.257 44.0541C144.126 44.1605 143.949 44.3142 143.725 44.5151C143.665 44.5742 143.648 44.651 143.671 44.7456C143.707 44.8283 143.772 44.8697 143.866 44.8697H151.455C151.408 44.9997 151.343 45.1711 151.26 45.3839C151.189 45.5849 151.112 45.8035 151.03 46.0399C150.947 46.2645 150.864 46.495 150.781 46.7314C150.71 46.956 150.645 47.157 150.586 47.3343C150.468 47.6889 150.22 47.8662 149.842 47.8662H139.061Z" fill="url(#paint4_linear_1649_1125)"></path></g><path d="M131.791 39.7857C130.866 39.8062 128.702 39.835 127.448 39.7857C127.351 39.7821 127.689 40.2161 127.87 40.4335L127.116 42.6238H131.61L132.213 40.5878C132.353 40.3204 132.466 39.7857 131.791 39.7857Z" fill="#D9D9D9"></path><path d="M131.791 39.7857C130.866 39.8062 128.702 39.835 127.448 39.7857C127.351 39.7821 127.689 40.2161 127.87 40.4335L127.116 42.6238H131.61L132.213 40.5878C132.353 40.3204 132.466 39.7857 131.791 39.7857Z" fill="url(#paint5_linear_1649_1125)"></path><path d="M131.791 39.7857C130.866 39.8062 128.702 39.835 127.448 39.7857C127.351 39.7821 127.689 40.2161 127.87 40.4335L127.116 42.6238H131.61L132.213 40.5878C132.353 40.3204 132.466 39.7857 131.791 39.7857Z" stroke="#14121D" stroke-width="0.0675755"></path><path d="M131.791 39.7857C130.866 39.8062 128.702 39.835 127.448 39.7857C127.351 39.7821 127.689 40.2161 127.87 40.4335L127.116 42.6238H131.61L132.213 40.5878C132.353 40.3204 132.466 39.7857 131.791 39.7857Z" stroke="url(#paint6_linear_1649_1125)" stroke-width="0.0675755"></path><g opacity="0.4" filter="url(#filter10_f_1649_1125)" style="mix-blend-mode: screen;"><path d="M131.791 39.7857C130.866 39.8062 128.702 39.835 127.448 39.7857C127.351 39.7821 127.689 40.2161 127.87 40.4335L127.116 42.6238H131.61L132.213 40.5878C132.353 40.3204 132.466 39.7857 131.791 39.7857Z" fill="#D9D9D9"></path><path d="M131.791 39.7857C130.866 39.8062 128.702 39.835 127.448 39.7857C127.351 39.7821 127.689 40.2161 127.87 40.4335L127.116 42.6238H131.61L132.213 40.5878C132.353 40.3204 132.466 39.7857 131.791 39.7857Z" fill="url(#paint7_linear_1649_1125)"></path><path d="M131.791 39.7857C130.866 39.8062 128.702 39.835 127.448 39.7857C127.351 39.7821 127.689 40.2161 127.87 40.4335L127.116 42.6238H131.61L132.213 40.5878C132.353 40.3204 132.466 39.7857 131.791 39.7857Z" stroke="#14121D" stroke-width="0.0675755"></path><path d="M131.791 39.7857C130.866 39.8062 128.702 39.835 127.448 39.7857C127.351 39.7821 127.689 40.2161 127.87 40.4335L127.116 42.6238H131.61L132.213 40.5878C132.353 40.3204 132.466 39.7857 131.791 39.7857Z" stroke="url(#paint8_linear_1649_1125)" stroke-width="0.0675755"></path></g><g filter="url(#filter11_i_1649_1125)"><path d="M137.24 48.6096C137.763 47.0962 138.208 45.8109 138.575 44.7537C138.954 43.6854 139.282 42.7506 139.56 41.9493C139.838 41.1481 140.083 40.4359 140.295 39.8127C140.517 39.1895 140.734 38.5663 140.946 37.9432L139.927 37.2588C139.849 37.2031 139.827 37.1364 139.861 37.0585C139.894 36.9694 139.955 36.9249 140.044 36.9249H145.219C144.863 37.9487 144.546 38.8612 144.267 39.6625C143.989 40.4526 143.744 41.1592 143.533 41.7824C143.322 42.3945 143.132 42.9342 142.965 43.4016C142.81 43.8578 142.671 44.2696 142.548 44.6368L142.398 44.7704C142.342 44.826 142.253 44.9095 142.131 45.0207C142.008 45.1209 141.841 45.2656 141.63 45.4548C141.574 45.5104 141.558 45.5827 141.58 45.6718C141.613 45.7496 141.675 45.7886 141.764 45.7886H148.908C148.863 45.911 148.802 46.0724 148.724 46.2727C148.658 46.4619 148.585 46.6677 148.507 46.8903C148.429 47.1017 148.352 47.3187 148.274 47.5413C148.207 47.7527 148.146 47.9419 148.09 48.1088C147.979 48.4427 147.745 48.6096 147.389 48.6096H137.24Z" fill="white"></path><path d="M137.24 48.6096C137.763 47.0962 138.208 45.8109 138.575 44.7537C138.954 43.6854 139.282 42.7506 139.56 41.9493C139.838 41.1481 140.083 40.4359 140.295 39.8127C140.517 39.1895 140.734 38.5663 140.946 37.9432L139.927 37.2588C139.849 37.2031 139.827 37.1364 139.861 37.0585C139.894 36.9694 139.955 36.9249 140.044 36.9249H145.219C144.863 37.9487 144.546 38.8612 144.267 39.6625C143.989 40.4526 143.744 41.1592 143.533 41.7824C143.322 42.3945 143.132 42.9342 142.965 43.4016C142.81 43.8578 142.671 44.2696 142.548 44.6368L142.398 44.7704C142.342 44.826 142.253 44.9095 142.131 45.0207C142.008 45.1209 141.841 45.2656 141.63 45.4548C141.574 45.5104 141.558 45.5827 141.58 45.6718C141.613 45.7496 141.675 45.7886 141.764 45.7886H148.908C148.863 45.911 148.802 46.0724 148.724 46.2727C148.658 46.4619 148.585 46.6677 148.507 46.8903C148.429 47.1017 148.352 47.3187 148.274 47.5413C148.207 47.7527 148.146 47.9419 148.09 48.1088C147.979 48.4427 147.745 48.6096 147.389 48.6096H137.24Z" fill="url(#paint9_linear_1649_1125)"></path></g><g opacity="0.4" filter="url(#filter12_if_1649_1125)"><path d="M137.24 48.6096C137.763 47.0962 138.208 45.8109 138.575 44.7537C138.954 43.6854 139.282 42.7506 139.56 41.9493C139.838 41.1481 140.083 40.4359 140.295 39.8127C140.517 39.1895 140.734 38.5663 140.946 37.9432L139.927 37.2588C139.849 37.2031 139.827 37.1364 139.861 37.0585C139.894 36.9694 139.955 36.9249 140.044 36.9249H145.219C144.863 37.9487 144.546 38.8612 144.267 39.6625C143.989 40.4526 143.744 41.1592 143.533 41.7824C143.322 42.3945 143.132 42.9342 142.965 43.4016C142.81 43.8578 142.671 44.2696 142.548 44.6368L142.398 44.7704C142.342 44.826 142.253 44.9095 142.131 45.0207C142.008 45.1209 141.841 45.2656 141.63 45.4548C141.574 45.5104 141.558 45.5827 141.58 45.6718C141.613 45.7496 141.675 45.7886 141.764 45.7886H148.908C148.863 45.911 148.802 46.0724 148.724 46.2727C148.658 46.4619 148.585 46.6677 148.507 46.8903C148.429 47.1017 148.352 47.3187 148.274 47.5413C148.207 47.7527 148.146 47.9419 148.09 48.1088C147.979 48.4427 147.745 48.6096 147.389 48.6096H137.24Z" fill="white"></path><path d="M137.24 48.6096C137.763 47.0962 138.208 45.8109 138.575 44.7537C138.954 43.6854 139.282 42.7506 139.56 41.9493C139.838 41.1481 140.083 40.4359 140.295 39.8127C140.517 39.1895 140.734 38.5663 140.946 37.9432L139.927 37.2588C139.849 37.2031 139.827 37.1364 139.861 37.0585C139.894 36.9694 139.955 36.9249 140.044 36.9249H145.219C144.863 37.9487 144.546 38.8612 144.267 39.6625C143.989 40.4526 143.744 41.1592 143.533 41.7824C143.322 42.3945 143.132 42.9342 142.965 43.4016C142.81 43.8578 142.671 44.2696 142.548 44.6368L142.398 44.7704C142.342 44.826 142.253 44.9095 142.131 45.0207C142.008 45.1209 141.841 45.2656 141.63 45.4548C141.574 45.5104 141.558 45.5827 141.58 45.6718C141.613 45.7496 141.675 45.7886 141.764 45.7886H148.908C148.863 45.911 148.802 46.0724 148.724 46.2727C148.658 46.4619 148.585 46.6677 148.507 46.8903C148.429 47.1017 148.352 47.3187 148.274 47.5413C148.207 47.7527 148.146 47.9419 148.09 48.1088C147.979 48.4427 147.745 48.6096 147.389 48.6096H137.24Z" fill="url(#paint10_linear_1649_1125)"></path></g><path d="M116.614 34.1768C116.708 34.4386 118.839 39.9146 119.893 42.6198" stroke="#14121D" stroke-width="1.01363"></path><path d="M116.614 34.1768C116.708 34.4386 118.839 39.9146 119.893 42.6198" stroke="#090A0B" stroke-width="1.01363"></path><path d="M104.064 49.9937C103.888 49.7869 100.077 45.5216 98.1933 43.4148" stroke="#14121D" stroke-width="1.01363"></path><path d="M104.064 49.9937C103.888 49.7869 100.077 45.5216 98.1933 43.4148" stroke="#090A0B" stroke-width="1.01363"></path><defs><filter id="filter0_i_1649_1125" x="17.7646" y="18.8618" width="27.5146" height="38.6169" filterUnits="userSpaceOnUse" color-interpolation-filters="sRGB"><feFlood flood-opacity="0" result="BackgroundImageFix"></feFlood><feBlend mode="normal" in="SourceGraphic" in2="BackgroundImageFix" result="shape"></feBlend><feColorMatrix in="SourceAlpha" type="matrix" values="0 0 0 0 0 0 0 0 0 0 0 0 0 0 0 0 0 0 127 0" result="hardAlpha"></feColorMatrix><feOffset dy="0.351064"></feOffset><feGaussianBlur stdDeviation="0.522207"></feGaussianBlur><feComposite in2="hardAlpha" operator="arithmetic" k2="-1" k3="1"></feComposite><feColorMatrix type="matrix" values="0 0 0 0 0 0 0 0 0 0 0 0 0 0 0 0 0 0 0.4 0"></feColorMatrix><feBlend mode="normal" in2="shape" result="effect1_innerShadow_1649_1125"></feBlend></filter><filter id="filter1_i_1649_1125" x="15" y="15" width="33" height="46.3403" filterUnits="userSpaceOnUse" color-interpolation-filters="sRGB"><feFlood flood-opacity="0" result="BackgroundImageFix"></feFlood><feBlend mode="normal" in="SourceGraphic" in2="BackgroundImageFix" result="shape"></feBlend><feColorMatrix in="SourceAlpha" type="matrix" values="0 0 0 0 0 0 0 0 0 0 0 0 0 0 0 0 0 0 127 0" result="hardAlpha"></feColorMatrix><feOffset dy="0.351064"></feOffset><feGaussianBlur stdDeviation="0.522207"></feGaussianBlur><feComposite in2="hardAlpha" operator="arithmetic" k2="-1" k3="1"></feComposite><feColorMatrix type="matrix" values="0 0 0 0 0 0 0 0 0 0 0 0 0 0 0 0 0 0 0.4 0"></feColorMatrix><feBlend mode="normal" in2="shape" result="effect1_innerShadow_1649_1125"></feBlend></filter><filter id="filter2_ii_1649_1125" x="17.7646" y="18.8618" width="19.9668" height="30.9639" filterUnits="userSpaceOnUse" color-interpolation-filters="sRGB"><feFlood flood-opacity="0" result="BackgroundImageFix"></feFlood><feBlend mode="normal" in="SourceGraphic" in2="BackgroundImageFix" result="shape"></feBlend><feColorMatrix in="SourceAlpha" type="matrix" values="0 0 0 0 0 0 0 0 0 0 0 0 0 0 0 0 0 0 127 0" result="hardAlpha"></feColorMatrix><feOffset dy="0.351064"></feOffset><feGaussianBlur stdDeviation="0.522207"></feGaussianBlur><feComposite in2="hardAlpha" operator="arithmetic" k2="-1" k3="1"></feComposite><feColorMatrix type="matrix" values="0 0 0 0 0 0 0 0 0 0 0 0 0 0 0 0 0 0 0.4 0"></feColorMatrix><feBlend mode="normal" in2="shape" result="effect1_innerShadow_1649_1125"></feBlend><feColorMatrix in="SourceAlpha" type="matrix" values="0 0 0 0 0 0 0 0 0 0 0 0 0 0 0 0 0 0 127 0" result="hardAlpha"></feColorMatrix><feOffset dy="0.351064"></feOffset><feGaussianBlur stdDeviation="0.640691"></feGaussianBlur><feComposite in2="hardAlpha" operator="arithmetic" k2="-1" k3="1"></feComposite><feColorMatrix type="matrix" values="0 0 0 0 1 0 0 0 0 1 0 0 0 0 1 0 0 0 0.7 0"></feColorMatrix><feBlend mode="normal" in2="effect1_innerShadow_1649_1125" result="effect2_innerShadow_1649_1125"></feBlend></filter><filter id="filter3_if_1649_1125" x="-0.718861" y="0.378307" width="56.9338" height="67.5798" filterUnits="userSpaceOnUse" color-interpolation-filters="sRGB"><feFlood flood-opacity="0" result="BackgroundImageFix"></feFlood><feBlend mode="normal" in="SourceGraphic" in2="BackgroundImageFix" result="shape"></feBlend><feColorMatrix in="SourceAlpha" type="matrix" values="0 0 0 0 0 0 0 0 0 0 0 0 0 0 0 0 0 0 127 0" result="hardAlpha"></feColorMatrix><feOffset dy="0.351064"></feOffset><feGaussianBlur stdDeviation="0.522207"></feGaussianBlur><feComposite in2="hardAlpha" operator="arithmetic" k2="-1" k3="1"></feComposite><feColorMatrix type="matrix" values="0 0 0 0 0 0 0 0 0 0 0 0 0 0 0 0 0 0 0.4 0"></feColorMatrix><feBlend mode="normal" in2="shape" result="effect1_innerShadow_1649_1125"></feBlend><feGaussianBlur stdDeviation="9.24175" result="effect2_foregroundBlur_1649_1125"></feGaussianBlur></filter><filter id="filter4_ii_1649_1125" x="65.0439" y="24.2432" width="25.2979" height="27.3435" filterUnits="userSpaceOnUse" color-interpolation-filters="sRGB"><feFlood flood-opacity="0" result="BackgroundImageFix"></feFlood><feBlend mode="normal" in="SourceGraphic" in2="BackgroundImageFix" result="shape"></feBlend><feColorMatrix in="SourceAlpha" type="matrix" values="0 0 0 0 0 0 0 0 0 0 0 0 0 0 0 0 0 0 127 0" result="hardAlpha"></feColorMatrix><feOffset dy="0.270302"></feOffset><feGaussianBlur stdDeviation="1.25352"></feGaussianBlur><feComposite in2="hardAlpha" operator="arithmetic" k2="-1" k3="1"></feComposite><feColorMatrix type="matrix" values="0 0 0 0 0.901961 0 0 0 0 0.996078 0 0 0 0 0.145098 0 0 0 0.1 0"></feColorMatrix><feBlend mode="normal" in2="shape" result="effect1_innerShadow_1649_1125"></feBlend><feColorMatrix in="SourceAlpha" type="matrix" values="0 0 0 0 0 0 0 0 0 0 0 0 0 0 0 0 0 0 127 0" result="hardAlpha"></feColorMatrix><feOffset dy="0.270302"></feOffset><feGaussianBlur stdDeviation="0.425725"></feGaussianBlur><feComposite in2="hardAlpha" operator="arithmetic" k2="-1" k3="1"></feComposite><feColorMatrix type="matrix" values="0 0 0 0 0 0 0 0 0 0 0 0 0 0 0 0 0 0 0.7 0"></feColorMatrix><feBlend mode="normal" in2="effect1_innerShadow_1649_1125" result="effect2_innerShadow_1649_1125"></feBlend></filter><filter id="filter5_i_1649_1125" x="65.0439" y="24.2432" width="21.3867" height="27.3435" filterUnits="userSpaceOnUse" color-interpolation-filters="sRGB"><feFlood flood-opacity="0" result="BackgroundImageFix"></feFlood><feBlend mode="normal" in="SourceGraphic" in2="BackgroundImageFix" result="shape"></feBlend><feColorMatrix in="SourceAlpha" type="matrix" values="0 0 0 0 0 0 0 0 0 0 0 0 0 0 0 0 0 0 127 0" result="hardAlpha"></feColorMatrix><feOffset dy="0.270302"></feOffset><feGaussianBlur stdDeviation="0.493301"></feGaussianBlur><feComposite in2="hardAlpha" operator="arithmetic" k2="-1" k3="1"></feComposite><feColorMatrix type="matrix" values="0 0 0 0 1 0 0 0 0 1 0 0 0 0 1 0 0 0 0.7 0"></feColorMatrix><feBlend mode="normal" in2="shape" result="effect1_innerShadow_1649_1125"></feBlend></filter><filter id="filter6_f_1649_1125" x="59.7325" y="18.9317" width="32.0096" height="37.6963" filterUnits="userSpaceOnUse" color-interpolation-filters="sRGB"><feFlood flood-opacity="0" result="BackgroundImageFix"></feFlood><feBlend mode="normal" in="SourceGraphic" in2="BackgroundImageFix" result="shape"></feBlend><feGaussianBlur stdDeviation="2.65572" result="effect1_foregroundBlur_1649_1125"></feGaussianBlur></filter><filter id="filter7_f_1649_1125" x="58.2159" y="17.7154" width="34.5604" height="40.8965" filterUnits="userSpaceOnUse" color-interpolation-filters="sRGB"><feFlood flood-opacity="0" result="BackgroundImageFix"></feFlood><feBlend mode="normal" in="SourceGraphic" in2="BackgroundImageFix" result="shape"></feBlend><feGaussianBlur stdDeviation="2.65572" result="effect1_foregroundBlur_1649_1125"></feGaussianBlur></filter><filter id="filter8_ii_1649_1125" x="90.2715" y="36.9248" width="58.623" height="11.9551" filterUnits="userSpaceOnUse" color-interpolation-filters="sRGB"><feFlood flood-opacity="0" result="BackgroundImageFix"></feFlood><feBlend mode="normal" in="SourceGraphic" in2="BackgroundImageFix" result="shape"></feBlend><feColorMatrix in="SourceAlpha" type="matrix" values="0 0 0 0 0 0 0 0 0 0 0 0 0 0 0 0 0 0 127 0" result="hardAlpha"></feColorMatrix><feOffset dy="0.270302"></feOffset><feGaussianBlur stdDeviation="1.25352"></feGaussianBlur><feComposite in2="hardAlpha" operator="arithmetic" k2="-1" k3="1"></feComposite><feColorMatrix type="matrix" values="0 0 0 0 0.901961 0 0 0 0 0.996078 0 0 0 0 0.145098 0 0 0 0.1 0"></feColorMatrix><feBlend mode="normal" in2="shape" result="effect1_innerShadow_1649_1125"></feBlend><feColorMatrix in="SourceAlpha" type="matrix" values="0 0 0 0 0 0 0 0 0 0 0 0 0 0 0 0 0 0 127 0" result="hardAlpha"></feColorMatrix><feOffset dy="0.270302"></feOffset><feGaussianBlur stdDeviation="0.425725"></feGaussianBlur><feComposite in2="hardAlpha" operator="arithmetic" k2="-1" k3="1"></feComposite><feColorMatrix type="matrix" values="0 0 0 0 0 0 0 0 0 0 0 0 0 0 0 0 0 0 0.7 0"></feColorMatrix><feBlend mode="normal" in2="effect1_innerShadow_1649_1125" result="effect2_innerShadow_1649_1125"></feBlend></filter><filter id="filter9_ii_1649_1125" x="89.1846" y="35.4548" width="62.2705" height="12.6985" filterUnits="userSpaceOnUse" color-interpolation-filters="sRGB"><feFlood flood-opacity="0" result="BackgroundImageFix"></feFlood><feBlend mode="normal" in="SourceGraphic" in2="BackgroundImageFix" result="shape"></feBlend><feColorMatrix in="SourceAlpha" type="matrix" values="0 0 0 0 0 0 0 0 0 0 0 0 0 0 0 0 0 0 127 0" result="hardAlpha"></feColorMatrix><feOffset dy="0.287115"></feOffset><feGaussianBlur stdDeviation="1.33149"></feGaussianBlur><feComposite in2="hardAlpha" operator="arithmetic" k2="-1" k3="1"></feComposite><feColorMatrix type="matrix" values="0 0 0 0 0.901961 0 0 0 0 0.996078 0 0 0 0 0.145098 0 0 0 0.1 0"></feColorMatrix><feBlend mode="normal" in2="shape" result="effect1_innerShadow_1649_1125"></feBlend><feColorMatrix in="SourceAlpha" type="matrix" values="0 0 0 0 0 0 0 0 0 0 0 0 0 0 0 0 0 0 127 0" result="hardAlpha"></feColorMatrix><feOffset dy="0.287115"></feOffset><feGaussianBlur stdDeviation="0.452206"></feGaussianBlur><feComposite in2="hardAlpha" operator="arithmetic" k2="-1" k3="1"></feComposite><feColorMatrix type="matrix" values="0 0 0 0 0 0 0 0 0 0 0 0 0 0 0 0 0 0 0.7 0"></feColorMatrix><feBlend mode="normal" in2="effect1_innerShadow_1649_1125" result="effect2_innerShadow_1649_1125"></feBlend></filter><filter id="filter10_f_1649_1125" x="121.358" y="34.0418" width="16.7054" height="14.326" filterUnits="userSpaceOnUse" color-interpolation-filters="sRGB"><feFlood flood-opacity="0" result="BackgroundImageFix"></feFlood><feBlend mode="normal" in="SourceGraphic" in2="BackgroundImageFix" result="shape"></feBlend><feGaussianBlur stdDeviation="2.85506" result="effect1_foregroundBlur_1649_1125"></feGaussianBlur></filter><filter id="filter11_i_1649_1125" x="137.24" y="36.9248" width="11.668" height="11.9551" filterUnits="userSpaceOnUse" color-interpolation-filters="sRGB"><feFlood flood-opacity="0" result="BackgroundImageFix"></feFlood><feBlend mode="normal" in="SourceGraphic" in2="BackgroundImageFix" result="shape"></feBlend><feColorMatrix in="SourceAlpha" type="matrix" values="0 0 0 0 0 0 0 0 0 0 0 0 0 0 0 0 0 0 127 0" result="hardAlpha"></feColorMatrix><feOffset dy="0.270302"></feOffset><feGaussianBlur stdDeviation="0.493301"></feGaussianBlur><feComposite in2="hardAlpha" operator="arithmetic" k2="-1" k3="1"></feComposite><feColorMatrix type="matrix" values="0 0 0 0 1 0 0 0 0 1 0 0 0 0 1 0 0 0 0.7 0"></feColorMatrix><feBlend mode="normal" in2="shape" result="effect1_innerShadow_1649_1125"></feBlend></filter><filter id="filter12_if_1649_1125" x="125.779" y="25.464" width="34.5896" height="34.6064" filterUnits="userSpaceOnUse" color-interpolation-filters="sRGB"><feFlood flood-opacity="0" result="BackgroundImageFix"></feFlood><feBlend mode="normal" in="SourceGraphic" in2="BackgroundImageFix" result="shape"></feBlend><feColorMatrix in="SourceAlpha" type="matrix" values="0 0 0 0 0 0 0 0 0 0 0 0 0 0 0 0 0 0 127 0" result="hardAlpha"></feColorMatrix><feOffset dy="0.270302"></feOffset><feGaussianBlur stdDeviation="0.493301"></feGaussianBlur><feComposite in2="hardAlpha" operator="arithmetic" k2="-1" k3="1"></feComposite><feColorMatrix type="matrix" values="0 0 0 0 1 0 0 0 0 1 0 0 0 0 1 0 0 0 0.7 0"></feColorMatrix><feBlend mode="normal" in2="shape" result="effect1_innerShadow_1649_1125"></feBlend><feGaussianBlur stdDeviation="5.7304" result="effect2_foregroundBlur_1649_1125"></feGaussianBlur></filter><linearGradient id="paint0_linear_1649_1125" x1="31.4123" y1="18.8618" x2="31.4123" y2="57.1278" gradientUnits="userSpaceOnUse"><stop stop-color="#B3F106"></stop><stop offset="1" stop-color="#5EFF03"></stop></linearGradient><linearGradient id="paint1_linear_1649_1125" x1="31.4123" y1="18.8618" x2="31.4123" y2="57.1278" gradientUnits="userSpaceOnUse"><stop stop-color="#B3F106"></stop><stop offset="1" stop-color="#5EFF03"></stop></linearGradient><linearGradient id="paint2_linear_1649_1125" x1="75.7372" y1="24.2432" x2="75.7372" y2="51.3163" gradientUnits="userSpaceOnUse"><stop stop-color="#B3F106"></stop><stop offset="1" stop-color="#5EFF03"></stop></linearGradient><linearGradient id="paint3_linear_1649_1125" x1="119.854" y1="36.6096" x2="119.854" y2="48.6096" gradientUnits="userSpaceOnUse"><stop stop-color="#B3F106"></stop><stop offset="1" stop-color="#5EFF03"></stop></linearGradient><linearGradient id="paint4_linear_1649_1125" x1="127.137" y1="35.8662" x2="127.137" y2="50.868" gradientUnits="userSpaceOnUse"><stop stop-color="#B3F106"></stop><stop offset="1" stop-color="#5EFF03"></stop></linearGradient><linearGradient id="paint5_linear_1649_1125" x1="129.718" y1="39.7856" x2="129.718" y2="42.6238" gradientUnits="userSpaceOnUse"><stop stop-color="#B3F106"></stop><stop offset="1" stop-color="#5EFF03"></stop></linearGradient><linearGradient id="paint6_linear_1649_1125" x1="129.718" y1="39.7856" x2="129.718" y2="42.6238" gradientUnits="userSpaceOnUse"><stop stop-color="#B3F106"></stop><stop offset="1" stop-color="#5EFF03"></stop></linearGradient><linearGradient id="paint7_linear_1649_1125" x1="129.718" y1="39.7856" x2="129.718" y2="42.6238" gradientUnits="userSpaceOnUse"><stop stop-color="#B3F106"></stop><stop offset="1" stop-color="#5EFF03"></stop></linearGradient><linearGradient id="paint8_linear_1649_1125" x1="129.718" y1="39.7856" x2="129.718" y2="42.6238" gradientUnits="userSpaceOnUse"><stop stop-color="#B3F106"></stop><stop offset="1" stop-color="#5EFF03"></stop></linearGradient><linearGradient id="paint9_linear_1649_1125" x1="143.657" y1="36.6096" x2="143.657" y2="48.6096" gradientUnits="userSpaceOnUse"><stop stop-color="#B3F106"></stop><stop offset="1" stop-color="#5EFF03"></stop></linearGradient><linearGradient id="paint10_linear_1649_1125" x1="143.657" y1="36.6096" x2="143.657" y2="48.6096" gradientUnits="userSpaceOnUse"><stop stop-color="#B3F106"></stop><stop offset="1" stop-color="#5EFF03"></stop></linearGradient></defs></svg>