<svg width="385" height="50" viewBox="0 0 385 50" fill="none" xmlns="http://www.w3.org/2000/svg"><rect x="110" y="24" width="258" height="2" rx="1" fill="url(#paint0_linear_609_6840)"></rect><g opacity="0.4" filter="url(#filter0_f_609_6840)"><rect x="110" y="24" width="258" height="2" rx="1" fill="url(#paint1_linear_609_6840)"></rect></g><g filter="url(#filter1_ii_609_6840)"><path d="M14.6502 31.9346C14.6702 31.9361 14.6763 32.0504 14.6629 32.1846C14.6562 32.3265 14.6156 32.5632 14.575 32.7119C14.5345 32.8606 14.4602 33.1448 14.4061 33.334C14.3183 33.6715 14.2913 33.7052 13.9198 33.8809C13.7101 33.9891 12.9266 34.3943 12.1834 34.7861C11.4401 35.1781 10.0414 35.8815 9.07505 36.3545C8.10872 36.8343 7.26372 37.2465 7.19614 37.2803C7.13537 37.314 7.06796 37.3269 7.04771 37.3066C7.02792 37.2862 7.08814 37.2188 7.18247 37.1514C7.27707 37.0906 7.55453 36.8817 7.80454 36.6992C8.04781 36.51 8.4401 36.2256 8.67661 36.0566C8.90659 35.8875 9.41977 35.5091 9.81821 35.2119C10.2234 34.9148 10.7299 34.5235 10.9598 34.3477C11.1896 34.1652 11.6701 33.8136 12.035 33.5703C12.3999 33.3203 12.8724 33.0023 13.0819 32.8672C13.2912 32.7321 13.5884 32.5499 13.7372 32.4688C13.8858 32.3877 14.0285 32.2995 14.0555 32.2725C14.0833 32.2517 14.218 32.1647 14.3592 32.084C14.5011 32.0029 14.63 31.9413 14.6502 31.9346ZM27.1376 12.8047C27.3132 12.7844 27.6243 12.7776 27.827 12.7979C28.0297 12.8114 28.4418 12.9053 28.7391 12.9932C29.0364 13.0878 29.4624 13.2571 29.6854 13.3652C29.9083 13.4801 30.2323 13.6693 30.4081 13.7842C30.577 13.8991 30.9087 14.2033 31.1317 14.4668C31.3547 14.7303 31.6319 15.1089 31.7333 15.3115C31.8413 15.5143 31.9968 15.872 32.0711 16.1084C32.1522 16.3382 32.2533 16.8116 32.2938 17.1562C32.3411 17.5211 32.355 18.1629 32.328 18.7236C32.3077 19.298 32.2334 19.8866 32.159 20.2109C32.0847 20.5081 31.9291 21.0008 31.8143 21.3115C31.7062 21.6156 31.4963 22.0891 31.3543 22.3594C31.2124 22.6229 31.0372 22.9407 30.9696 23.0488C30.8953 23.1569 30.6991 23.4203 30.5301 23.623C30.3612 23.8257 30.0907 24.116 29.9217 24.2715C29.7528 24.4202 29.4823 24.65 29.3133 24.7852C29.1444 24.9203 28.8609 25.1027 28.6717 25.1973C28.4893 25.2851 28.0902 25.4405 27.7928 25.5352C27.4956 25.6297 27.1041 25.7249 26.9149 25.752C26.7324 25.779 26.0836 25.8259 24.3807 25.8867L24.7049 26.2656C24.8806 26.4683 25.1442 26.7853 25.2928 26.9678C25.4415 27.1435 25.6851 27.4346 25.827 27.6035C25.9756 27.7724 26.1441 27.9754 26.1981 28.043C26.2591 28.1107 26.5365 28.4345 26.8202 28.752C27.0972 29.0695 27.5568 29.6034 27.8338 29.9277C28.1041 30.2589 28.53 30.7661 28.7733 31.0566C29.0167 31.3474 29.6785 32.1311 30.2459 32.8066C30.8068 33.4756 31.2733 34.0639 31.2733 34.0977C31.2661 34.1447 30.0196 34.165 24.1444 34.165L23.536 33.4482C23.1983 33.0565 22.8337 32.6176 22.7254 32.4688C22.6173 32.3268 22.2043 31.8404 21.8124 31.3809C21.4271 30.9213 20.6505 30.002 20.0897 29.3398C19.5358 28.6711 18.9683 28.0023 18.8397 27.8398C18.7113 27.6777 18.3734 27.2721 17.5897 26.333L16.8797 26.3262C16.4878 26.3262 16.136 26.3529 16.0887 26.3799C16.0413 26.408 15.9273 26.7793 15.8329 27.2041C15.7383 27.6298 15.5482 28.4213 15.4198 28.9619C15.2915 29.5019 15.1299 30.0418 15.0555 30.1641C14.9813 30.2787 14.8395 30.4341 14.7381 30.4951C14.63 30.5627 14.3793 30.7459 14.1766 30.9014C13.9738 31.0569 13.5478 31.381 13.2303 31.6309C12.9127 31.8742 12.3726 32.3 12.0213 32.5635C11.6767 32.8338 11.3251 33.0973 11.244 33.1514C11.1629 33.2055 10.9736 33.3471 10.825 33.4619C10.6831 33.5768 10.399 33.78 10.2098 33.9219C9.86555 34.1581 9.8315 34.165 9.24399 34.165C8.81856 34.165 8.62874 34.138 8.60825 34.084C8.58798 34.0367 8.6354 33.786 8.70298 33.5225C8.77069 33.2584 9.04113 32.232 9.30454 31.2256C9.56801 30.219 9.87896 29.05 9.98716 28.624C10.0953 28.1983 10.2776 27.4682 10.3924 27.002C10.5073 26.5357 10.6292 26.0622 10.6629 25.9541C10.6969 25.8453 10.8315 25.3255 10.9598 24.8057C11.0947 24.2865 11.2035 23.8077 11.204 23.7451C11.204 23.6438 11.1697 23.6297 11.0213 23.6836C10.9132 23.7174 10.5752 23.8462 10.2577 23.9746C9.94008 24.103 9.25057 24.4001 8.72349 24.623C8.19199 24.8518 7.7474 25.0273 7.72349 25.0088C7.70322 24.9885 7.81125 24.9141 7.95982 24.8398C8.10818 24.7657 8.24283 24.6707 8.26353 24.6367C8.2838 24.6029 8.76425 24.2246 9.33189 23.8057C9.8926 23.3868 10.5613 22.9004 10.8182 22.7246C11.0672 22.5497 11.2827 22.4074 11.3045 22.4062C11.3248 22.4062 11.5012 22.2784 11.6971 22.1162C11.8862 21.9542 12.1695 21.745 12.3182 21.6436C12.4667 21.5423 12.6489 21.4136 12.7235 21.3594C12.8451 21.2715 13.6229 21.2578 19.1776 21.2578C24.6355 21.2578 25.5422 21.244 25.8534 21.1562C26.0763 21.0954 26.2926 20.967 26.4413 20.8184C26.5697 20.69 26.7528 20.4403 26.8407 20.2646C26.9285 20.0822 27.0098 19.8454 27.0233 19.7373C27.0367 19.6292 27.016 19.4132 26.9823 19.2646C26.9417 19.089 26.8199 18.8924 26.6307 18.71C26.462 18.5413 26.2325 18.3932 26.0907 18.3525C25.942 18.3188 24.4481 18.2842 22.5086 18.2842C20.6774 18.2842 19.1637 18.2643 19.1434 18.2373C19.13 18.2034 19.2381 18.0746 19.3934 17.9463C19.5488 17.8179 19.7995 17.6356 19.9549 17.541C20.1103 17.4464 20.3264 17.3116 20.4344 17.2373C20.5426 17.1629 20.921 16.8924 21.2723 16.6289C21.6237 16.3654 22.232 15.9394 22.6239 15.6826C23.0089 15.4192 23.4883 15.0881 23.6776 14.9395C23.8736 14.7908 24.665 14.2569 25.4286 13.7568C26.5631 13.0208 26.8876 12.8386 27.1376 12.8047ZM28.4217 10.2432C28.4514 10.2432 28.4038 10.3113 28.3075 10.4121L18.3983 17.4678C18.3252 17.5118 18.2762 17.5403 18.2655 17.541C18.2452 17.541 18.056 17.6767 17.8465 17.832C17.6304 17.9941 17.3867 18.1625 17.3055 18.2031C17.2042 18.2572 16.7717 18.2842 16.1366 18.2842C15.5829 18.2842 15.0562 18.2574 14.9745 18.2236C14.8866 18.1831 13.6026 16.9534 12.1161 15.4736C9.77833 13.1562 9.43299 12.7906 9.54771 12.7432C9.62204 12.7094 12.8865 12.6825 23.9081 12.6758L24.4276 12.3984C24.7182 12.243 25.3066 11.9191 25.7323 11.6758C26.1577 11.4394 26.5696 11.2167 26.6444 11.1895C26.7187 11.1624 27.0228 10.9931 27.3202 10.8174C27.6175 10.6417 27.8948 10.4931 27.9286 10.4863C27.9625 10.4794 28.0705 10.4258 28.1649 10.3584C28.2595 10.2976 28.3744 10.2432 28.4217 10.2432Z" fill="white"></path></g><g filter="url(#filter2_i_609_6840)"><path d="M14.6502 31.9346C14.6702 31.9361 14.6763 32.0504 14.6629 32.1846C14.6562 32.3265 14.6156 32.5632 14.575 32.7119C14.5345 32.8606 14.4602 33.1448 14.4061 33.334C14.3183 33.6715 14.2913 33.7052 13.9198 33.8809C13.7101 33.9891 12.9266 34.3943 12.1834 34.7861C11.4401 35.1781 10.0414 35.8815 9.07505 36.3545C8.10872 36.8343 7.26372 37.2465 7.19614 37.2803C7.13537 37.314 7.06796 37.3269 7.04771 37.3066C7.02792 37.2862 7.08814 37.2188 7.18247 37.1514C7.27707 37.0906 7.55453 36.8817 7.80454 36.6992C8.04781 36.51 8.4401 36.2256 8.67661 36.0566C8.90659 35.8875 9.41977 35.5091 9.81821 35.2119C10.2234 34.9148 10.7299 34.5235 10.9598 34.3477C11.1896 34.1652 11.6701 33.8136 12.035 33.5703C12.3999 33.3203 12.8724 33.0023 13.0819 32.8672C13.2912 32.7321 13.5884 32.5499 13.7372 32.4688C13.8858 32.3877 14.0285 32.2995 14.0555 32.2725C14.0833 32.2517 14.218 32.1647 14.3592 32.084C14.5011 32.0029 14.63 31.9413 14.6502 31.9346ZM28.4217 10.2432C28.4514 10.2432 28.4038 10.3113 28.3075 10.4121L18.3983 17.4678C18.3252 17.5118 18.2762 17.5403 18.2655 17.541C18.2452 17.541 18.056 17.6767 17.8465 17.832C17.6304 17.9941 17.3867 18.1625 17.3055 18.2031C17.2042 18.2572 16.7717 18.2842 16.1366 18.2842C15.5829 18.2842 15.0562 18.2574 14.9745 18.2236C14.8866 18.1831 13.6026 16.9534 12.1161 15.4736C9.77833 13.1562 9.43299 12.7906 9.54771 12.7432C9.62204 12.7094 12.8865 12.6825 23.9081 12.6758L24.4276 12.3984C24.7182 12.243 25.3066 11.9191 25.7323 11.6758C26.1577 11.4394 26.5696 11.2167 26.6444 11.1895C26.7187 11.1624 27.0228 10.9931 27.3202 10.8174C27.6175 10.6417 27.8948 10.4931 27.9286 10.4863C27.9625 10.4794 28.0705 10.4258 28.1649 10.3584C28.2595 10.2976 28.3744 10.2432 28.4217 10.2432Z" fill="white"></path><path d="M14.6502 31.9346C14.6702 31.9361 14.6763 32.0504 14.6629 32.1846C14.6562 32.3265 14.6156 32.5632 14.575 32.7119C14.5345 32.8606 14.4602 33.1448 14.4061 33.334C14.3183 33.6715 14.2913 33.7052 13.9198 33.8809C13.7101 33.9891 12.9266 34.3943 12.1834 34.7861C11.4401 35.1781 10.0414 35.8815 9.07505 36.3545C8.10872 36.8343 7.26372 37.2465 7.19614 37.2803C7.13537 37.314 7.06796 37.3269 7.04771 37.3066C7.02792 37.2862 7.08814 37.2188 7.18247 37.1514C7.27707 37.0906 7.55453 36.8817 7.80454 36.6992C8.04781 36.51 8.4401 36.2256 8.67661 36.0566C8.90659 35.8875 9.41977 35.5091 9.81821 35.2119C10.2234 34.9148 10.7299 34.5235 10.9598 34.3477C11.1896 34.1652 11.6701 33.8136 12.035 33.5703C12.3999 33.3203 12.8724 33.0023 13.0819 32.8672C13.2912 32.7321 13.5884 32.5499 13.7372 32.4688C13.8858 32.3877 14.0285 32.2995 14.0555 32.2725C14.0833 32.2517 14.218 32.1647 14.3592 32.084C14.5011 32.0029 14.63 31.9413 14.6502 31.9346ZM28.4217 10.2432C28.4514 10.2432 28.4038 10.3113 28.3075 10.4121L18.3983 17.4678C18.3252 17.5118 18.2762 17.5403 18.2655 17.541C18.2452 17.541 18.056 17.6767 17.8465 17.832C17.6304 17.9941 17.3867 18.1625 17.3055 18.2031C17.2042 18.2572 16.7717 18.2842 16.1366 18.2842C15.5829 18.2842 15.0562 18.2574 14.9745 18.2236C14.8866 18.1831 13.6026 16.9534 12.1161 15.4736C9.77833 13.1562 9.43299 12.7906 9.54771 12.7432C9.62204 12.7094 12.8865 12.6825 23.9081 12.6758L24.4276 12.3984C24.7182 12.243 25.3066 11.9191 25.7323 11.6758C26.1577 11.4394 26.5696 11.2167 26.6444 11.1895C26.7187 11.1624 27.0228 10.9931 27.3202 10.8174C27.6175 10.6417 27.8948 10.4931 27.9286 10.4863C27.9625 10.4794 28.0705 10.4258 28.1649 10.3584C28.2595 10.2976 28.3744 10.2432 28.4217 10.2432Z" fill="url(#paint2_linear_609_6840)"></path></g><g opacity="0.4" filter="url(#filter3_f_609_6840)" style="mix-blend-mode: screen;"><path d="M27.9284 10.4864C27.9622 10.4797 28.0703 10.4256 28.1649 10.358C28.2595 10.2972 28.3744 10.2432 28.4217 10.2432C28.4623 10.2432 28.3609 10.3716 28.1852 10.5337C28.0027 10.6959 27.5297 11.0946 27.1243 11.4257C26.7188 11.7636 26.212 12.1893 26.0025 12.3718C25.7863 12.561 25.1916 13.007 24.678 13.3719C24.1577 13.7368 23.2522 14.3247 22.6575 14.6761C22.0629 15.0275 21.5628 15.3113 21.5425 15.3113C21.5223 15.3113 21.4479 15.3721 21.3736 15.4465C21.2993 15.5208 21.2047 15.5816 21.1709 15.5816C21.1371 15.5816 21.0425 15.6424 20.9681 15.7235C20.8938 15.7979 20.4343 16.129 19.9545 16.4466C19.4747 16.7642 18.9003 17.1426 18.6909 17.2845C18.4746 17.4264 18.2854 17.5413 18.2651 17.5413C18.2449 17.5413 18.0556 17.6765 17.8462 17.8319C17.6299 17.9941 17.3866 18.163 17.3056 18.2036C17.2042 18.2576 16.7717 18.2846 16.1365 18.2846C15.5824 18.2846 15.0553 18.2576 14.9742 18.2238C14.8864 18.1833 13.6024 16.9534 12.1158 15.4735C9.77765 13.1557 9.43301 12.7908 9.54789 12.7435C9.62222 12.7097 12.8861 12.6826 23.9077 12.6759L24.428 12.3988C24.7186 12.2434 25.3065 11.919 25.7322 11.6758C26.1579 11.4392 26.5702 11.2163 26.6445 11.1892C26.7188 11.1622 27.0229 10.9933 27.3202 10.8176C27.6176 10.6419 27.8946 10.4932 27.9284 10.4864Z" fill="white"></path><path d="M27.9284 10.4864C27.9622 10.4797 28.0703 10.4256 28.1649 10.358C28.2595 10.2972 28.3744 10.2432 28.4217 10.2432C28.4623 10.2432 28.3609 10.3716 28.1852 10.5337C28.0027 10.6959 27.5297 11.0946 27.1243 11.4257C26.7188 11.7636 26.212 12.1893 26.0025 12.3718C25.7863 12.561 25.1916 13.007 24.678 13.3719C24.1577 13.7368 23.2522 14.3247 22.6575 14.6761C22.0629 15.0275 21.5628 15.3113 21.5425 15.3113C21.5223 15.3113 21.4479 15.3721 21.3736 15.4465C21.2993 15.5208 21.2047 15.5816 21.1709 15.5816C21.1371 15.5816 21.0425 15.6424 20.9681 15.7235C20.8938 15.7979 20.4343 16.129 19.9545 16.4466C19.4747 16.7642 18.9003 17.1426 18.6909 17.2845C18.4746 17.4264 18.2854 17.5413 18.2651 17.5413C18.2449 17.5413 18.0556 17.6765 17.8462 17.8319C17.6299 17.9941 17.3866 18.163 17.3056 18.2036C17.2042 18.2576 16.7717 18.2846 16.1365 18.2846C15.5824 18.2846 15.0553 18.2576 14.9742 18.2238C14.8864 18.1833 13.6024 16.9534 12.1158 15.4735C9.77765 13.1557 9.43301 12.7908 9.54789 12.7435C9.62222 12.7097 12.8861 12.6826 23.9077 12.6759L24.428 12.3988C24.7186 12.2434 25.3065 11.919 25.7322 11.6758C26.1579 11.4392 26.5702 11.2163 26.6445 11.1892C26.7188 11.1622 27.0229 10.9933 27.3202 10.8176C27.6176 10.6419 27.8946 10.4932 27.9284 10.4864Z" fill="#5EFF03" fill-opacity="0.937255"></path><path d="M14.0552 32.2728C14.0822 32.2525 14.2174 32.1646 14.3593 32.0836C14.5012 32.0025 14.6296 31.9416 14.6498 31.9349C14.6701 31.9349 14.6769 32.0498 14.6634 32.1849C14.6566 32.3268 14.6161 32.5633 14.5755 32.712C14.535 32.8607 14.4606 33.1445 14.4066 33.3337C14.3187 33.6716 14.2917 33.7054 13.92 33.8811C13.7105 33.9892 12.9267 34.3946 12.1833 34.7866C11.44 35.1785 10.0412 35.8813 9.07486 36.3543C8.10853 36.8341 7.26384 37.2463 7.19627 37.2801C7.13545 37.3139 7.06787 37.3274 7.0476 37.3071C7.02733 37.2869 7.08815 37.2193 7.18275 37.1517C7.27736 37.0909 7.55442 36.8814 7.80445 36.699C8.04772 36.5097 8.43965 36.2259 8.67617 36.057C8.90593 35.8881 9.4195 35.5096 9.81819 35.2123C10.2236 34.915 10.7305 34.523 10.9602 34.3473C11.19 34.1649 11.6698 33.8135 12.0347 33.5702C12.3996 33.3202 12.8726 33.0026 13.0821 32.8674C13.2916 32.7323 13.5889 32.5498 13.7376 32.4687C13.8862 32.3876 14.0281 32.2998 14.0552 32.2728Z" fill="white"></path><path d="M14.0552 32.2728C14.0822 32.2525 14.2174 32.1646 14.3593 32.0836C14.5012 32.0025 14.6296 31.9416 14.6498 31.9349C14.6701 31.9349 14.6769 32.0498 14.6634 32.1849C14.6566 32.3268 14.6161 32.5633 14.5755 32.712C14.535 32.8607 14.4606 33.1445 14.4066 33.3337C14.3187 33.6716 14.2917 33.7054 13.92 33.8811C13.7105 33.9892 12.9267 34.3946 12.1833 34.7866C11.44 35.1785 10.0412 35.8813 9.07486 36.3543C8.10853 36.8341 7.26384 37.2463 7.19627 37.2801C7.13545 37.3139 7.06787 37.3274 7.0476 37.3071C7.02733 37.2869 7.08815 37.2193 7.18275 37.1517C7.27736 37.0909 7.55442 36.8814 7.80445 36.699C8.04772 36.5097 8.43965 36.2259 8.67617 36.057C8.90593 35.8881 9.4195 35.5096 9.81819 35.2123C10.2236 34.915 10.7305 34.523 10.9602 34.3473C11.19 34.1649 11.6698 33.8135 12.0347 33.5702C12.3996 33.3202 12.8726 33.0026 13.0821 32.8674C13.2916 32.7323 13.5889 32.5498 13.7376 32.4687C13.8862 32.3876 14.0281 32.2998 14.0552 32.2728Z" fill="#5EFF03" fill-opacity="0.937255"></path></g><g opacity="0.07"><path d="M28.9023 9.29888C28.9401 9.29133 29.0612 9.23088 29.167 9.15531C29.2729 9.08731 29.4015 9.02686 29.4544 9.02686C29.4998 9.02686 29.3864 9.17043 29.1897 9.35178C28.9855 9.53313 28.4561 9.97895 28.0023 10.3492C27.5485 10.727 26.9812 11.2031 26.7468 11.4071C26.5048 11.6187 25.8392 12.1174 25.2644 12.5254C24.682 12.9335 23.6685 13.5909 23.0029 13.9838C22.3374 14.3767 21.7777 14.6941 21.755 14.6941C21.7323 14.6941 21.6491 14.7621 21.5659 14.8452C21.4827 14.9284 21.3768 14.9964 21.339 14.9964C21.3012 14.9964 21.1953 15.0644 21.1121 15.155C21.0289 15.2382 20.5146 15.6084 19.9776 15.9636C19.4406 16.3187 18.7977 16.7419 18.5633 16.9006C18.3213 17.0592 18.1095 17.1877 18.0868 17.1877C18.0641 17.1877 17.8523 17.3388 17.6179 17.5126C17.3758 17.694 17.1036 17.8829 17.0128 17.9282C16.8994 17.9887 16.4153 18.0189 15.7044 18.0189C15.0842 18.0189 14.4942 17.9887 14.4035 17.9509C14.3051 17.9056 12.8681 16.5303 11.2042 14.8755C8.58728 12.2836 8.20155 11.8756 8.33013 11.8227C8.41333 11.7849 12.0664 11.7547 24.4022 11.7471L24.9845 11.4373C25.3098 11.2635 25.9678 10.9008 26.4443 10.6288C26.9207 10.3643 27.3821 10.115 27.4653 10.0847C27.5485 10.0545 27.8888 9.86561 28.2216 9.66914C28.5544 9.47268 28.8645 9.30644 28.9023 9.29888Z" fill="white"></path><path d="M26.1039 12.9562C27.3745 12.1325 27.7376 11.9285 28.0174 11.8907C28.2141 11.868 28.562 11.8605 28.7889 11.8832C29.0158 11.8983 29.4771 12.0041 29.8099 12.1023C30.1427 12.2081 30.6192 12.397 30.8688 12.5179C31.1184 12.6463 31.4814 12.8579 31.6781 12.9864C31.8671 13.1148 32.2377 13.4549 32.4873 13.7496C32.7369 14.0443 33.047 14.4674 33.1605 14.6941C33.2815 14.9208 33.4554 15.3213 33.5386 15.5858C33.6294 15.8427 33.7428 16.3716 33.7882 16.757C33.8412 17.165 33.8563 17.8829 33.826 18.5101C33.8033 19.1524 33.7201 19.8098 33.637 20.1725C33.5538 20.5049 33.3798 21.0566 33.2512 21.4041C33.1302 21.7442 32.8958 22.2731 32.7369 22.5754C32.5781 22.8701 32.3814 23.2252 32.3058 23.3461C32.2226 23.467 32.0033 23.7617 31.8142 23.9884C31.6251 24.2151 31.3226 24.54 31.1335 24.7138C30.9444 24.8801 30.6419 25.137 30.4528 25.2881C30.2637 25.4392 29.9461 25.6433 29.7343 25.749C29.5301 25.8473 29.0838 26.0211 28.7511 26.1269C28.4183 26.2326 27.9796 26.3384 27.7678 26.3687C27.5636 26.3989 26.8375 26.4518 24.9316 26.5198L25.2946 26.9429C25.4913 27.1696 25.7862 27.5248 25.9526 27.7288C26.119 27.9253 26.3913 28.2502 26.5501 28.4391C26.7165 28.628 26.9056 28.8547 26.9661 28.9303C27.0342 29.0058 27.3443 29.3685 27.6619 29.7237C27.972 30.0788 28.4863 30.6758 28.7964 31.0385C29.099 31.4087 29.5755 31.9755 29.8477 32.3004C30.12 32.6253 30.8612 33.5018 31.4965 34.2575C32.1243 35.0056 32.6462 35.663 32.6462 35.7007C32.6462 35.7536 31.2621 35.7763 24.6669 35.7763L23.9862 34.9753C23.608 34.5371 23.1996 34.0459 23.0786 33.8797C22.9576 33.721 22.4962 33.1769 22.0575 32.6631C21.6264 32.1493 20.7566 31.1216 20.1289 30.3811C19.5087 29.633 18.8734 28.8849 18.7297 28.7036C18.586 28.5222 18.2078 28.0688 17.3305 27.0185L16.5363 27.0109C16.0976 27.0109 15.7044 27.0412 15.6514 27.0714C15.5985 27.1016 15.4699 27.5172 15.364 27.9933C15.2581 28.4693 15.0463 29.3534 14.9026 29.9579C14.7589 30.5624 14.5774 31.1669 14.4942 31.3029C14.411 31.4314 14.2522 31.6052 14.1388 31.6732C14.0177 31.7488 13.7379 31.9528 13.511 32.1266C13.2841 32.3004 12.8076 32.6631 12.4521 32.9427C12.0967 33.2147 11.4916 33.6908 11.0983 33.9855C10.7126 34.2877 10.3193 34.5824 10.2285 34.6429C10.1378 34.7033 9.92599 34.862 9.7596 34.9904C9.60077 35.1189 9.28311 35.3456 9.07133 35.5043C8.68561 35.7687 8.64779 35.7763 7.98978 35.7763C7.51329 35.7763 7.30152 35.7461 7.27883 35.6856C7.25614 35.6327 7.30908 35.3531 7.38472 35.0585C7.46035 34.7638 7.76288 33.6152 8.05785 32.4893C8.35282 31.3634 8.70073 30.0562 8.82175 29.5801C8.94276 29.1041 9.14697 28.288 9.27554 27.7666C9.40412 27.2452 9.54026 26.7163 9.57808 26.5954C9.61589 26.4744 9.76716 25.8926 9.91086 25.3108C10.0621 24.7289 10.1831 24.1924 10.1831 24.1244C10.1831 24.0111 10.1453 23.996 9.97893 24.0564C9.85792 24.0942 9.47975 24.2378 9.12428 24.3813C8.7688 24.5249 7.99735 24.8574 7.40741 25.1068C6.80991 25.3637 6.31073 25.5601 6.28804 25.5375C6.26535 25.5148 6.38636 25.4317 6.55275 25.3486C6.71915 25.2654 6.87041 25.1596 6.8931 25.1219C6.91579 25.0841 7.45279 24.6609 8.0881 24.1924C8.71586 23.7239 9.46463 23.1799 9.75203 22.9834C10.0319 22.787 10.2739 22.6283 10.2966 22.6283C10.3193 22.6283 10.5159 22.4847 10.7353 22.3033C10.947 22.122 11.2647 21.8877 11.4311 21.7744C11.5975 21.6611 11.8017 21.5175 11.8849 21.457C12.021 21.3588 12.8908 21.3437 19.1078 21.3437C25.219 21.3437 26.2325 21.3286 26.5804 21.2303C26.83 21.1623 27.072 21.0188 27.2384 20.8525C27.3821 20.709 27.5863 20.4294 27.6846 20.2329C27.783 20.0289 27.8737 19.7644 27.8888 19.6435C27.904 19.5226 27.8813 19.2808 27.8435 19.1146C27.7981 18.9181 27.6619 18.699 27.4502 18.495C27.2611 18.306 27.0039 18.1398 26.8451 18.0945C26.6787 18.0567 25.0072 18.0189 22.8366 18.0189C20.7869 18.0189 19.0927 17.9962 19.07 17.966C19.0549 17.9282 19.1759 17.7847 19.3499 17.6411C19.5238 17.4975 19.8037 17.2935 19.9776 17.1877C20.1516 17.0819 20.3936 16.9308 20.5146 16.8477C20.6356 16.7645 21.0592 16.4623 21.4525 16.1676C21.8458 15.8729 22.5265 15.3969 22.9651 15.1097C23.3962 14.815 23.9332 14.4448 24.145 14.2785C24.3643 14.1123 25.2492 13.5153 26.1039 12.9562Z" fill="white"></path><path d="M13.3749 33.6605C13.4051 33.6379 13.5564 33.5396 13.7152 33.449C13.874 33.3583 14.0177 33.2903 14.0404 33.2827C14.0631 33.2827 14.0707 33.4112 14.0556 33.5623C14.048 33.721 14.0026 33.9855 13.9572 34.1517C13.9119 34.3179 13.8287 34.6353 13.7681 34.8469C13.6698 35.2247 13.6396 35.2625 13.2236 35.4589C12.9891 35.5798 12.1118 36.0332 11.2798 36.4715C10.4479 36.9098 8.88225 37.6956 7.8007 38.2246C6.71915 38.7611 5.77373 39.222 5.6981 39.2598C5.63003 39.2976 5.5544 39.3127 5.53171 39.29C5.50902 39.2673 5.57709 39.1918 5.68297 39.1162C5.78886 39.0482 6.09896 38.814 6.3788 38.6099C6.65108 38.3984 7.08975 38.081 7.35446 37.8921C7.61162 37.7032 8.18643 37.28 8.63266 36.9475C9.08646 36.6151 9.65371 36.1768 9.91086 35.9803C10.168 35.7763 10.705 35.3834 11.1134 35.1113C11.5218 34.8318 12.0513 34.4766 12.2857 34.3255C12.5202 34.1744 12.853 33.9703 13.0194 33.8797C13.1858 33.789 13.3446 33.6908 13.3749 33.6605Z" fill="white"></path></g><g opacity="0.07"><path d="M28.9023 9.29888C28.9401 9.29133 29.0612 9.23088 29.167 9.15531C29.2729 9.08731 29.4015 9.02686 29.4544 9.02686C29.4998 9.02686 29.3864 9.17043 29.1897 9.35178C28.9855 9.53313 28.4561 9.97895 28.0023 10.3492C27.5485 10.727 26.9812 11.2031 26.7468 11.4071C26.5048 11.6187 25.8392 12.1174 25.2644 12.5254C24.682 12.9335 23.6685 13.5909 23.0029 13.9838C22.3374 14.3767 21.7777 14.6941 21.755 14.6941C21.7323 14.6941 21.6491 14.7621 21.5659 14.8452C21.4827 14.9284 21.3768 14.9964 21.339 14.9964C21.3012 14.9964 21.1953 15.0644 21.1121 15.155C21.0289 15.2382 20.5146 15.6084 19.9776 15.9636C19.4406 16.3187 18.7977 16.7419 18.5633 16.9006C18.3213 17.0592 18.1095 17.1877 18.0868 17.1877C18.0641 17.1877 17.8523 17.3388 17.6179 17.5126C17.3758 17.694 17.1036 17.8829 17.0128 17.9282C16.8994 17.9887 16.4153 18.0189 15.7044 18.0189C15.0842 18.0189 14.4942 17.9887 14.4035 17.9509C14.3051 17.9056 12.8681 16.5303 11.2042 14.8755C8.58728 12.2836 8.20155 11.8756 8.33013 11.8227C8.41333 11.7849 12.0664 11.7547 24.4022 11.7471L24.9845 11.4373C25.3098 11.2635 25.9678 10.9008 26.4443 10.6288C26.9207 10.3643 27.3821 10.115 27.4653 10.0847C27.5485 10.0545 27.8888 9.86561 28.2216 9.66914C28.5544 9.47268 28.8645 9.30644 28.9023 9.29888Z" fill="white"></path><path d="M28.9023 9.29888C28.9401 9.29133 29.0612 9.23088 29.167 9.15531C29.2729 9.08731 29.4015 9.02686 29.4544 9.02686C29.4998 9.02686 29.3864 9.17043 29.1897 9.35178C28.9855 9.53313 28.4561 9.97895 28.0023 10.3492C27.5485 10.727 26.9812 11.2031 26.7468 11.4071C26.5048 11.6187 25.8392 12.1174 25.2644 12.5254C24.682 12.9335 23.6685 13.5909 23.0029 13.9838C22.3374 14.3767 21.7777 14.6941 21.755 14.6941C21.7323 14.6941 21.6491 14.7621 21.5659 14.8452C21.4827 14.9284 21.3768 14.9964 21.339 14.9964C21.3012 14.9964 21.1953 15.0644 21.1121 15.155C21.0289 15.2382 20.5146 15.6084 19.9776 15.9636C19.4406 16.3187 18.7977 16.7419 18.5633 16.9006C18.3213 17.0592 18.1095 17.1877 18.0868 17.1877C18.0641 17.1877 17.8523 17.3388 17.6179 17.5126C17.3758 17.694 17.1036 17.8829 17.0128 17.9282C16.8994 17.9887 16.4153 18.0189 15.7044 18.0189C15.0842 18.0189 14.4942 17.9887 14.4035 17.9509C14.3051 17.9056 12.8681 16.5303 11.2042 14.8755C8.58728 12.2836 8.20155 11.8756 8.33013 11.8227C8.41333 11.7849 12.0664 11.7547 24.4022 11.7471L24.9845 11.4373C25.3098 11.2635 25.9678 10.9008 26.4443 10.6288C26.9207 10.3643 27.3821 10.115 27.4653 10.0847C27.5485 10.0545 27.8888 9.86561 28.2216 9.66914C28.5544 9.47268 28.8645 9.30644 28.9023 9.29888Z" fill="#5EFF03" fill-opacity="0.937255"></path><path d="M13.3749 33.6605C13.4051 33.6379 13.5564 33.5396 13.7152 33.449C13.874 33.3583 14.0177 33.2903 14.0404 33.2827C14.0631 33.2827 14.0707 33.4112 14.0556 33.5623C14.048 33.721 14.0026 33.9855 13.9572 34.1517C13.9119 34.3179 13.8287 34.6353 13.7681 34.8469C13.6698 35.2247 13.6396 35.2625 13.2236 35.4589C12.9891 35.5798 12.1118 36.0332 11.2798 36.4715C10.4479 36.9098 8.88225 37.6956 7.8007 38.2246C6.71915 38.7611 5.77373 39.222 5.6981 39.2598C5.63003 39.2976 5.5544 39.3127 5.53171 39.29C5.50902 39.2673 5.57709 39.1918 5.68297 39.1162C5.78886 39.0482 6.09896 38.814 6.3788 38.6099C6.65108 38.3984 7.08975 38.081 7.35446 37.8921C7.61162 37.7032 8.18643 37.28 8.63266 36.9475C9.08646 36.6151 9.65371 36.1768 9.91086 35.9803C10.168 35.7763 10.705 35.3834 11.1134 35.1113C11.5218 34.8318 12.0513 34.4766 12.2857 34.3255C12.5202 34.1744 12.853 33.9703 13.0194 33.8797C13.1858 33.789 13.3446 33.6908 13.3749 33.6605Z" fill="white"></path><path d="M13.3749 33.6605C13.4051 33.6379 13.5564 33.5396 13.7152 33.449C13.874 33.3583 14.0177 33.2903 14.0404 33.2827C14.0631 33.2827 14.0707 33.4112 14.0556 33.5623C14.048 33.721 14.0026 33.9855 13.9572 34.1517C13.9119 34.3179 13.8287 34.6353 13.7681 34.8469C13.6698 35.2247 13.6396 35.2625 13.2236 35.4589C12.9891 35.5798 12.1118 36.0332 11.2798 36.4715C10.4479 36.9098 8.88225 37.6956 7.8007 38.2246C6.71915 38.7611 5.77373 39.222 5.6981 39.2598C5.63003 39.2976 5.5544 39.3127 5.53171 39.29C5.50902 39.2673 5.57709 39.1918 5.68297 39.1162C5.78886 39.0482 6.09896 38.814 6.3788 38.6099C6.65108 38.3984 7.08975 38.081 7.35446 37.8921C7.61162 37.7032 8.18643 37.28 8.63266 36.9475C9.08646 36.6151 9.65371 36.1768 9.91086 35.9803C10.168 35.7763 10.705 35.3834 11.1134 35.1113C11.5218 34.8318 12.0513 34.4766 12.2857 34.3255C12.5202 34.1744 12.853 33.9703 13.0194 33.8797C13.1858 33.789 13.3446 33.6908 13.3749 33.6605Z" fill="#5EFF03" fill-opacity="0.937255"></path></g><g opacity="0.07" filter="url(#filter4_f_609_6840)" style="mix-blend-mode: screen;"><path d="M28.9023 9.29888C28.9401 9.29133 29.0612 9.23088 29.167 9.15531C29.2729 9.08731 29.4015 9.02686 29.4544 9.02686C29.4998 9.02686 29.3864 9.17043 29.1897 9.35178C28.9855 9.53313 28.4561 9.97895 28.0023 10.3492C27.5485 10.727 26.9812 11.2031 26.7468 11.4071C26.5048 11.6187 25.8392 12.1174 25.2644 12.5254C24.682 12.9335 23.6685 13.5909 23.0029 13.9838C22.3374 14.3767 21.7777 14.6941 21.755 14.6941C21.7323 14.6941 21.6491 14.7621 21.5659 14.8452C21.4827 14.9284 21.3768 14.9964 21.339 14.9964C21.3012 14.9964 21.1953 15.0644 21.1121 15.155C21.0289 15.2382 20.5146 15.6084 19.9776 15.9636C19.4406 16.3187 18.7977 16.7419 18.5633 16.9006C18.3213 17.0592 18.1095 17.1877 18.0868 17.1877C18.0641 17.1877 17.8523 17.3388 17.6179 17.5126C17.3758 17.694 17.1036 17.8829 17.0128 17.9282C16.8994 17.9887 16.4153 18.0189 15.7044 18.0189C15.0842 18.0189 14.4942 17.9887 14.4035 17.9509C14.3051 17.9056 12.8681 16.5303 11.2042 14.8755C8.58728 12.2836 8.20155 11.8756 8.33013 11.8227C8.41333 11.7849 12.0664 11.7547 24.4022 11.7471L24.9845 11.4373C25.3098 11.2635 25.9678 10.9008 26.4443 10.6288C26.9207 10.3643 27.3821 10.115 27.4653 10.0847C27.5485 10.0545 27.8888 9.86561 28.2216 9.66914C28.5544 9.47268 28.8645 9.30644 28.9023 9.29888Z" fill="white"></path><path d="M28.9023 9.29888C28.9401 9.29133 29.0612 9.23088 29.167 9.15531C29.2729 9.08731 29.4015 9.02686 29.4544 9.02686C29.4998 9.02686 29.3864 9.17043 29.1897 9.35178C28.9855 9.53313 28.4561 9.97895 28.0023 10.3492C27.5485 10.727 26.9812 11.2031 26.7468 11.4071C26.5048 11.6187 25.8392 12.1174 25.2644 12.5254C24.682 12.9335 23.6685 13.5909 23.0029 13.9838C22.3374 14.3767 21.7777 14.6941 21.755 14.6941C21.7323 14.6941 21.6491 14.7621 21.5659 14.8452C21.4827 14.9284 21.3768 14.9964 21.339 14.9964C21.3012 14.9964 21.1953 15.0644 21.1121 15.155C21.0289 15.2382 20.5146 15.6084 19.9776 15.9636C19.4406 16.3187 18.7977 16.7419 18.5633 16.9006C18.3213 17.0592 18.1095 17.1877 18.0868 17.1877C18.0641 17.1877 17.8523 17.3388 17.6179 17.5126C17.3758 17.694 17.1036 17.8829 17.0128 17.9282C16.8994 17.9887 16.4153 18.0189 15.7044 18.0189C15.0842 18.0189 14.4942 17.9887 14.4035 17.9509C14.3051 17.9056 12.8681 16.5303 11.2042 14.8755C8.58728 12.2836 8.20155 11.8756 8.33013 11.8227C8.41333 11.7849 12.0664 11.7547 24.4022 11.7471L24.9845 11.4373C25.3098 11.2635 25.9678 10.9008 26.4443 10.6288C26.9207 10.3643 27.3821 10.115 27.4653 10.0847C27.5485 10.0545 27.8888 9.86561 28.2216 9.66914C28.5544 9.47268 28.8645 9.30644 28.9023 9.29888Z" fill="#5EFF03" fill-opacity="0.937255"></path><path d="M13.3749 33.6605C13.4051 33.6379 13.5564 33.5396 13.7152 33.449C13.874 33.3583 14.0177 33.2903 14.0404 33.2827C14.0631 33.2827 14.0707 33.4112 14.0556 33.5623C14.048 33.721 14.0026 33.9855 13.9572 34.1517C13.9119 34.3179 13.8287 34.6353 13.7681 34.8469C13.6698 35.2247 13.6396 35.2625 13.2236 35.4589C12.9891 35.5798 12.1118 36.0332 11.2798 36.4715C10.4479 36.9098 8.88225 37.6956 7.8007 38.2246C6.71915 38.7611 5.77373 39.222 5.6981 39.2598C5.63003 39.2976 5.5544 39.3127 5.53171 39.29C5.50902 39.2673 5.57709 39.1918 5.68297 39.1162C5.78886 39.0482 6.09896 38.814 6.3788 38.6099C6.65108 38.3984 7.08975 38.081 7.35446 37.8921C7.61162 37.7032 8.18643 37.28 8.63266 36.9475C9.08646 36.6151 9.65371 36.1768 9.91086 35.9803C10.168 35.7763 10.705 35.3834 11.1134 35.1113C11.5218 34.8318 12.0513 34.4766 12.2857 34.3255C12.5202 34.1744 12.853 33.9703 13.0194 33.8797C13.1858 33.789 13.3446 33.6908 13.3749 33.6605Z" fill="white"></path><path d="M13.3749 33.6605C13.4051 33.6379 13.5564 33.5396 13.7152 33.449C13.874 33.3583 14.0177 33.2903 14.0404 33.2827C14.0631 33.2827 14.0707 33.4112 14.0556 33.5623C14.048 33.721 14.0026 33.9855 13.9572 34.1517C13.9119 34.3179 13.8287 34.6353 13.7681 34.8469C13.6698 35.2247 13.6396 35.2625 13.2236 35.4589C12.9891 35.5798 12.1118 36.0332 11.2798 36.4715C10.4479 36.9098 8.88225 37.6956 7.8007 38.2246C6.71915 38.7611 5.77373 39.222 5.6981 39.2598C5.63003 39.2976 5.5544 39.3127 5.53171 39.29C5.50902 39.2673 5.57709 39.1918 5.68297 39.1162C5.78886 39.0482 6.09896 38.814 6.3788 38.6099C6.65108 38.3984 7.08975 38.081 7.35446 37.8921C7.61162 37.7032 8.18643 37.28 8.63266 36.9475C9.08646 36.6151 9.65371 36.1768 9.91086 35.9803C10.168 35.7763 10.705 35.3834 11.1134 35.1113C11.5218 34.8318 12.0513 34.4766 12.2857 34.3255C12.5202 34.1744 12.853 33.9703 13.0194 33.8797C13.1858 33.789 13.3446 33.6908 13.3749 33.6605Z" fill="#5EFF03" fill-opacity="0.937255"></path></g><g filter="url(#filter5_ii_609_6840)"><path d="M32.4883 31.9388L34.675 25.579C34.7974 25.2118 34.9754 24.8724 35.2091 24.5608C35.4428 24.2381 35.721 23.9543 36.0438 23.7095C36.3776 23.4646 36.7504 23.2755 37.1622 23.1419C37.5739 22.9973 38.0135 22.9249 38.4809 22.9249H45.8756C46.3096 22.9249 46.6991 22.9917 47.0441 23.1252C47.4002 23.2476 47.6839 23.4257 47.8954 23.6594C48.118 23.8931 48.2626 24.1713 48.3294 24.494C48.3962 24.8167 48.3628 25.1784 48.2292 25.579L46.0258 31.9388C45.9034 32.2949 45.7254 32.6343 45.4917 32.9571C45.2691 33.2798 44.9909 33.5636 44.6571 33.8084C44.3343 34.0532 43.9671 34.2479 43.5554 34.3926C43.1436 34.5373 42.6985 34.6096 42.22 34.6096H34.8419C34.4079 34.6096 34.0129 34.5484 33.6567 34.426C33.3118 34.2925 33.028 34.1088 32.8054 33.8752C32.5829 33.6415 32.4382 33.3633 32.3714 33.0405C32.3047 32.7067 32.3436 32.3394 32.4883 31.9388ZM36.7115 31.7886H41.9028C42.0809 31.7886 42.1866 31.7163 42.22 31.5716L44.173 25.9629C44.2175 25.8183 44.1563 25.7459 43.9894 25.7459H37.1955C37.1065 25.7459 37.0453 25.7905 37.0119 25.8795C36.9785 25.9574 36.9952 26.0241 37.062 26.0798L38.0969 27.0146L36.5278 31.5716C36.4833 31.7163 36.5445 31.7886 36.7115 31.7886ZM48.738 22.9249H53.7958C53.8737 23.1364 53.946 23.3478 54.0128 23.5592C54.0795 23.7595 54.1519 23.9599 54.2298 24.1602C54.3522 24.494 54.4746 24.839 54.597 25.1951C54.7194 25.5401 54.8196 25.8238 54.8975 26.0464C54.8196 26.4025 54.7528 26.7252 54.6972 27.0146C54.6526 27.3039 54.6026 27.5654 54.5469 27.7991C56.2384 26.2523 57.9132 24.6943 59.5713 23.1252C59.7049 22.9917 59.8718 22.9249 60.0721 22.9249H64.5123C64.223 23.1809 63.839 23.5258 63.3605 23.9599C62.8931 24.3827 62.3757 24.8612 61.8081 25.3954L56.2162 30.52L54.9809 34.1088C54.9253 34.2646 54.8307 34.3871 54.6972 34.4761C54.5636 34.5651 54.419 34.6096 54.2632 34.6096H50.8579C50.9914 34.2313 51.1361 33.8084 51.2919 33.341C51.4588 32.8736 51.6202 32.4285 51.776 32.0056C51.865 31.7608 51.9485 31.516 52.0264 31.2711C52.1154 31.0263 52.2044 30.7759 52.2934 30.52C52.2489 30.4087 52.2044 30.2918 52.1599 30.1694C52.1154 30.047 52.0653 29.9246 52.0097 29.8022L51.3253 28.0495C51.1917 27.6934 51.0526 27.3373 50.908 26.9812C50.7744 26.6251 50.6353 26.2578 50.4907 25.8795C50.1902 25.145 49.9398 24.5107 49.7395 23.9765L48.6378 23.2588C48.5599 23.2031 48.5321 23.1364 48.5543 23.0585C48.5877 22.9694 48.6489 22.9249 48.738 22.9249ZM62.6378 34.6096C62.7491 34.2646 62.8993 33.8195 63.0885 33.2742C63.2777 32.7178 63.4891 32.1113 63.7228 31.4548C63.9565 30.7871 64.1958 30.0915 64.4406 29.3682C64.6965 28.6449 64.9414 27.9493 65.175 27.2816C65.4087 26.6028 65.6257 25.9741 65.8261 25.3954C66.0264 24.8167 66.1877 24.3382 66.3101 23.9599L65.2919 23.2588C65.214 23.2031 65.1862 23.1364 65.2084 23.0585C65.2418 22.9694 65.303 22.9249 65.392 22.9249H80.0647C79.9757 23.1809 79.8366 23.5871 79.6474 24.1435C79.4582 24.6999 79.2412 25.3342 78.9964 26.0464C78.7516 26.7586 78.4956 27.5153 78.2285 28.3166C77.9614 29.1178 77.6999 29.8912 77.444 30.6368C77.1992 31.3824 76.971 32.0612 76.7596 32.6733C76.5593 33.2854 76.4035 33.7639 76.2922 34.1088C76.1809 34.4427 75.9472 34.6096 75.5911 34.6096H72.1358L73.1707 31.7886H67.5454L66.7441 34.1088C66.6329 34.4427 66.3992 34.6096 66.0431 34.6096H62.6378ZM68.3633 29.4183H73.9886L75.107 26.1466C75.2072 25.8795 75.0903 25.7459 74.7565 25.7459H68.7639C68.6749 25.7459 68.6137 25.7905 68.5803 25.8795C68.558 25.9574 68.5803 26.0241 68.6471 26.0798L69.3148 26.6807L68.3633 29.4183Z" fill="white"></path><path d="M79.2272 34.6096C79.7502 33.0962 80.1954 31.8109 80.5626 30.7537C80.941 29.6854 81.2692 28.7506 81.5474 27.9493C81.8257 27.1481 82.0705 26.4359 82.2819 25.8127C82.5045 25.1895 82.7215 24.5663 82.9329 23.9432L81.9147 23.2588C81.8368 23.2031 81.8145 23.1364 81.8479 23.0585C81.8813 22.9694 81.9425 22.9249 82.0315 22.9249H87.2062C86.8501 23.9487 86.5329 24.8612 86.2547 25.6625C85.9765 26.4526 85.7317 27.1592 85.5202 27.7824C85.3088 28.3945 85.1196 28.9342 84.9527 29.4016C84.7969 29.8578 84.6578 30.2696 84.5354 30.6368L84.3852 30.7704C84.3295 30.826 84.2405 30.9095 84.1181 31.0207C83.9957 31.1209 83.8287 31.2656 83.6173 31.4548C83.5617 31.5104 83.545 31.5827 83.5672 31.6718C83.6006 31.7496 83.6618 31.7886 83.7508 31.7886H90.8952C90.8507 31.911 90.7895 32.0724 90.7116 32.2727C90.6448 32.4619 90.5725 32.6677 90.4946 32.8903C90.4167 33.1017 90.3388 33.3187 90.2609 33.5413C90.1941 33.7527 90.1329 33.9419 90.0773 34.1088C89.966 34.4427 89.7323 34.6096 89.3762 34.6096H79.2272Z" fill="white"></path><path d="M79.2272 34.6096C79.7502 33.0962 80.1954 31.8109 80.5626 30.7537C80.941 29.6854 81.2692 28.7506 81.5474 27.9493C81.8257 27.1481 82.0705 26.4359 82.2819 25.8127C82.5045 25.1895 82.7215 24.5663 82.9329 23.9432L81.9147 23.2588C81.8368 23.2031 81.8145 23.1364 81.8479 23.0585C81.8813 22.9694 81.9425 22.9249 82.0315 22.9249H87.2062C86.8501 23.9487 86.5329 24.8612 86.2547 25.6625C85.9765 26.4526 85.7317 27.1592 85.5202 27.7824C85.3088 28.3945 85.1196 28.9342 84.9527 29.4016C84.7969 29.8578 84.6578 30.2696 84.5354 30.6368L84.3852 30.7704C84.3295 30.826 84.2405 30.9095 84.1181 31.0207C83.9957 31.1209 83.8287 31.2656 83.6173 31.4548C83.5617 31.5104 83.545 31.5827 83.5672 31.6718C83.6006 31.7496 83.6618 31.7886 83.7508 31.7886H90.8952C90.8507 31.911 90.7895 32.0724 90.7116 32.2727C90.6448 32.4619 90.5725 32.6677 90.4946 32.8903C90.4167 33.1017 90.3388 33.3187 90.2609 33.5413C90.1941 33.7527 90.1329 33.9419 90.0773 34.1088C89.966 34.4427 89.7323 34.6096 89.3762 34.6096H79.2272Z" fill="url(#paint3_linear_609_6840)"></path></g><g opacity="0.1" filter="url(#filter6_ii_609_6840)"><path d="M31.4155 31.0293L33.7383 24.2739C33.8683 23.8838 34.0574 23.5233 34.3056 23.1923C34.5539 22.8495 34.8494 22.5481 35.1922 22.2881C35.5468 22.028 35.9428 21.8271 36.3801 21.6852C36.8175 21.5315 37.2844 21.4547 37.7809 21.4547H45.6356C46.0966 21.4547 46.5103 21.5256 46.8767 21.6675C47.255 21.7975 47.5564 21.9866 47.781 22.2349C48.0174 22.4831 48.171 22.7786 48.242 23.1214C48.3129 23.4642 48.2774 23.8484 48.1356 24.2739L45.7951 31.0293C45.6651 31.4076 45.476 31.7681 45.2278 32.1109C44.9913 32.4537 44.6958 32.7551 44.3412 33.0151C43.9984 33.2752 43.6083 33.482 43.171 33.6357C42.7336 33.7894 42.2608 33.8662 41.7525 33.8662H33.9156C33.4546 33.8662 33.0349 33.8012 32.6567 33.6712C32.2902 33.5293 31.9888 33.3343 31.7524 33.0861C31.516 32.8378 31.3623 32.5423 31.2914 32.1995C31.2205 31.8449 31.2619 31.4548 31.4155 31.0293ZM35.9014 30.8697H41.4156C41.6048 30.8697 41.7171 30.7929 41.7525 30.6392L43.827 24.6817C43.8743 24.528 43.8093 24.4512 43.632 24.4512H36.4156C36.321 24.4512 36.256 24.4985 36.2205 24.5931C36.1851 24.6758 36.2028 24.7467 36.2737 24.8058L37.373 25.7987L35.7064 30.6392C35.6591 30.7929 35.7241 30.8697 35.9014 30.8697ZM48.676 21.4547H54.0484C54.1311 21.6793 54.2079 21.9039 54.2789 22.1285C54.3498 22.3412 54.4266 22.554 54.5094 22.7668C54.6394 23.1214 54.7694 23.4878 54.8994 23.8661C55.0295 24.2325 55.1358 24.5339 55.2186 24.7704C55.1358 25.1486 55.0649 25.4914 55.0058 25.7987C54.9585 26.1061 54.9053 26.3839 54.8462 26.6321C56.643 24.989 58.4219 23.3342 60.1832 21.6675C60.325 21.5256 60.5023 21.4547 60.7151 21.4547H65.4315C65.1241 21.7266 64.7163 22.093 64.2081 22.554C63.7116 23.0032 63.1619 23.5115 62.5591 24.0789L56.6193 29.5222L55.3072 33.3343C55.2481 33.4998 55.1477 33.6298 55.0058 33.7244C54.864 33.8189 54.7103 33.8662 54.5448 33.8662H50.9278C51.0696 33.4643 51.2233 33.0151 51.3888 32.5187C51.5661 32.0222 51.7375 31.5494 51.9029 31.1002C51.9975 30.8402 52.0862 30.5801 52.1689 30.3201C52.2635 30.06 52.358 29.7941 52.4526 29.5222C52.4053 29.404 52.358 29.2799 52.3108 29.1498C52.2635 29.0198 52.2103 28.8898 52.1512 28.7598L51.4242 26.898C51.2824 26.5198 51.1346 26.1415 50.9809 25.7633C50.8391 25.385 50.6913 24.9949 50.5377 24.5931C50.2185 23.8129 49.9526 23.1391 49.7398 22.5717L48.5696 21.8093C48.4868 21.7502 48.4573 21.6793 48.4809 21.5966C48.5164 21.502 48.5814 21.4547 48.676 21.4547ZM63.4404 33.8662C63.5586 33.4998 63.7182 33.027 63.9191 32.4478C64.12 31.8567 64.3446 31.2125 64.5929 30.5151C64.8411 29.8059 65.0952 29.0671 65.3553 28.2988C65.6272 27.5304 65.8872 26.7917 66.1354 26.0824C66.3837 25.3614 66.6142 24.6935 66.8269 24.0789C67.0397 23.4642 67.2111 22.9559 67.3411 22.554L66.2596 21.8093C66.1768 21.7502 66.1473 21.6793 66.1709 21.5966C66.2064 21.502 66.2714 21.4547 66.3659 21.4547H81.9512C81.8567 21.7266 81.7089 22.158 81.508 22.7491C81.307 23.3401 81.0765 24.0138 80.8165 24.7704C80.5564 25.5269 80.2845 26.3307 80.0009 27.1817C79.7172 28.0328 79.4394 28.8543 79.1675 29.6463C78.9075 30.4383 78.6651 31.1593 78.4406 31.8094C78.2278 32.4596 78.0623 32.9679 77.9441 33.3343C77.8259 33.6889 77.5777 33.8662 77.1994 33.8662H73.5291L74.6285 30.8697H68.6532L67.8021 33.3343C67.6839 33.6889 67.4357 33.8662 67.0574 33.8662H63.4404ZM69.522 28.352H75.4973L76.6852 24.8767C76.7916 24.593 76.6675 24.4512 76.3129 24.4512H69.9475C69.853 24.4512 69.788 24.4985 69.7525 24.5931C69.7289 24.6758 69.7525 24.7467 69.8234 24.8058L70.5327 25.4441L69.522 28.352Z" fill="white"></path><path d="M81.0616 33.8662C81.6172 32.2586 82.09 30.8934 82.4801 29.7704C82.882 28.6357 83.2307 27.6427 83.5262 26.7917C83.8217 25.9406 84.0818 25.1841 84.3064 24.5221C84.5428 23.8602 84.7733 23.1982 84.9979 22.5363L83.9163 21.8093C83.8336 21.7502 83.8099 21.6793 83.8454 21.5966C83.8808 21.502 83.9458 21.4547 84.0404 21.4547H89.5369C89.1587 22.5422 88.8218 23.5115 88.5263 24.3626C88.2308 25.2018 87.9707 25.9524 87.7461 26.6144C87.5215 27.2645 87.3206 27.8378 87.1433 28.3342C86.9778 28.8189 86.83 29.2562 86.7 29.6463L86.5404 29.7881C86.4813 29.8473 86.3868 29.9359 86.2567 30.0541C86.1267 30.1605 85.9494 30.3142 85.7248 30.5151C85.6657 30.5742 85.648 30.651 85.6716 30.7456C85.7071 30.8283 85.7721 30.8697 85.8667 30.8697H93.4554C93.4081 30.9997 93.3431 31.1711 93.2604 31.3839C93.1895 31.5849 93.1126 31.8035 93.0299 32.0399C92.9471 32.2645 92.8644 32.495 92.7816 32.7314C92.7107 32.956 92.6457 33.157 92.5866 33.3343C92.4684 33.6889 92.2202 33.8662 91.8419 33.8662H81.0616Z" fill="white"></path><path d="M81.0616 33.8662C81.6172 32.2586 82.09 30.8934 82.4801 29.7704C82.882 28.6357 83.2307 27.6427 83.5262 26.7917C83.8217 25.9406 84.0818 25.1841 84.3064 24.5221C84.5428 23.8602 84.7733 23.1982 84.9979 22.5363L83.9163 21.8093C83.8336 21.7502 83.8099 21.6793 83.8454 21.5966C83.8808 21.502 83.9458 21.4547 84.0404 21.4547H89.5369C89.1587 22.5422 88.8218 23.5115 88.5263 24.3626C88.2308 25.2018 87.9707 25.9524 87.7461 26.6144C87.5215 27.2645 87.3206 27.8378 87.1433 28.3342C86.9778 28.8189 86.83 29.2562 86.7 29.6463L86.5404 29.7881C86.4813 29.8473 86.3868 29.9359 86.2567 30.0541C86.1267 30.1605 85.9494 30.3142 85.7248 30.5151C85.6657 30.5742 85.648 30.651 85.6716 30.7456C85.7071 30.8283 85.7721 30.8697 85.8667 30.8697H93.4554C93.4081 30.9997 93.3431 31.1711 93.2604 31.3839C93.1895 31.5849 93.1126 31.8035 93.0299 32.0399C92.9471 32.2645 92.8644 32.495 92.7816 32.7314C92.7107 32.956 92.6457 33.157 92.5866 33.3343C92.4684 33.6889 92.2202 33.8662 91.8419 33.8662H81.0616Z" fill="url(#paint4_linear_609_6840)"></path></g><path d="M73.7901 25.7857C72.8653 25.8062 70.702 25.835 69.4475 25.7857C69.3509 25.7821 69.6887 26.2161 69.8697 26.4335L69.1157 28.6238H73.6091L74.2123 26.5878C74.353 26.3204 74.4656 25.7857 73.7901 25.7857Z" fill="#D9D9D9"></path><path d="M73.7901 25.7857C72.8653 25.8062 70.702 25.835 69.4475 25.7857C69.3509 25.7821 69.6887 26.2161 69.8697 26.4335L69.1157 28.6238H73.6091L74.2123 26.5878C74.353 26.3204 74.4656 25.7857 73.7901 25.7857Z" fill="url(#paint5_linear_609_6840)"></path><path d="M73.7901 25.7857C72.8653 25.8062 70.702 25.835 69.4475 25.7857C69.3509 25.7821 69.6887 26.2161 69.8697 26.4335L69.1157 28.6238H73.6091L74.2123 26.5878C74.353 26.3204 74.4656 25.7857 73.7901 25.7857Z" stroke="#14121D" stroke-width="0.0675755"></path><path d="M73.7901 25.7857C72.8653 25.8062 70.702 25.835 69.4475 25.7857C69.3509 25.7821 69.6887 26.2161 69.8697 26.4335L69.1157 28.6238H73.6091L74.2123 26.5878C74.353 26.3204 74.4656 25.7857 73.7901 25.7857Z" stroke="url(#paint6_linear_609_6840)" stroke-width="0.0675755"></path><g opacity="0.4" filter="url(#filter7_f_609_6840)" style="mix-blend-mode: screen;"><path d="M73.7901 25.7857C72.8653 25.8062 70.702 25.835 69.4475 25.7857C69.3509 25.7821 69.6887 26.2161 69.8697 26.4335L69.1157 28.6238H73.6091L74.2123 26.5878C74.353 26.3204 74.4656 25.7857 73.7901 25.7857Z" fill="#D9D9D9"></path><path d="M73.7901 25.7857C72.8653 25.8062 70.702 25.835 69.4475 25.7857C69.3509 25.7821 69.6887 26.2161 69.8697 26.4335L69.1157 28.6238H73.6091L74.2123 26.5878C74.353 26.3204 74.4656 25.7857 73.7901 25.7857Z" fill="url(#paint7_linear_609_6840)"></path><path d="M73.7901 25.7857C72.8653 25.8062 70.702 25.835 69.4475 25.7857C69.3509 25.7821 69.6887 26.2161 69.8697 26.4335L69.1157 28.6238H73.6091L74.2123 26.5878C74.353 26.3204 74.4656 25.7857 73.7901 25.7857Z" stroke="#14121D" stroke-width="0.0675755"></path><path d="M73.7901 25.7857C72.8653 25.8062 70.702 25.835 69.4475 25.7857C69.3509 25.7821 69.6887 26.2161 69.8697 26.4335L69.1157 28.6238H73.6091L74.2123 26.5878C74.353 26.3204 74.4656 25.7857 73.7901 25.7857Z" stroke="url(#paint8_linear_609_6840)" stroke-width="0.0675755"></path></g><g filter="url(#filter8_i_609_6840)"><path d="M79.2404 34.6096C79.7634 33.0962 80.2086 31.8109 80.5758 30.7537C80.9542 29.6854 81.2824 28.7506 81.5607 27.9493C81.8389 27.1481 82.0837 26.4359 82.2951 25.8127C82.5177 25.1895 82.7347 24.5663 82.9461 23.9432L81.9279 23.2588C81.85 23.2031 81.8277 23.1364 81.8611 23.0585C81.8945 22.9694 81.9557 22.9249 82.0447 22.9249H87.2194C86.8633 23.9487 86.5461 24.8612 86.2679 25.6625C85.9897 26.4526 85.7449 27.1592 85.5334 27.7824C85.322 28.3945 85.1328 28.9342 84.9659 29.4016C84.8101 29.8578 84.671 30.2696 84.5486 30.6368L84.3984 30.7704C84.3427 30.826 84.2537 30.9095 84.1313 31.0207C84.0089 31.1209 83.8419 31.2656 83.6305 31.4548C83.5749 31.5104 83.5582 31.5827 83.5804 31.6718C83.6138 31.7496 83.675 31.7886 83.7641 31.7886H90.9084C90.8639 31.911 90.8027 32.0724 90.7248 32.2727C90.658 32.4619 90.5857 32.6677 90.5078 32.8903C90.4299 33.1017 90.352 33.3187 90.2741 33.5413C90.2073 33.7527 90.1461 33.9419 90.0905 34.1088C89.9792 34.4427 89.7455 34.6096 89.3894 34.6096H79.2404Z" fill="white"></path><path d="M79.2404 34.6096C79.7634 33.0962 80.2086 31.8109 80.5758 30.7537C80.9542 29.6854 81.2824 28.7506 81.5607 27.9493C81.8389 27.1481 82.0837 26.4359 82.2951 25.8127C82.5177 25.1895 82.7347 24.5663 82.9461 23.9432L81.9279 23.2588C81.85 23.2031 81.8277 23.1364 81.8611 23.0585C81.8945 22.9694 81.9557 22.9249 82.0447 22.9249H87.2194C86.8633 23.9487 86.5461 24.8612 86.2679 25.6625C85.9897 26.4526 85.7449 27.1592 85.5334 27.7824C85.322 28.3945 85.1328 28.9342 84.9659 29.4016C84.8101 29.8578 84.671 30.2696 84.5486 30.6368L84.3984 30.7704C84.3427 30.826 84.2537 30.9095 84.1313 31.0207C84.0089 31.1209 83.8419 31.2656 83.6305 31.4548C83.5749 31.5104 83.5582 31.5827 83.5804 31.6718C83.6138 31.7496 83.675 31.7886 83.7641 31.7886H90.9084C90.8639 31.911 90.8027 32.0724 90.7248 32.2727C90.658 32.4619 90.5857 32.6677 90.5078 32.8903C90.4299 33.1017 90.352 33.3187 90.2741 33.5413C90.2073 33.7527 90.1461 33.9419 90.0905 34.1088C89.9792 34.4427 89.7455 34.6096 89.3894 34.6096H79.2404Z" fill="url(#paint9_linear_609_6840)"></path></g><g opacity="0.4" filter="url(#filter9_if_609_6840)"><path d="M79.2404 34.6096C79.7634 33.0962 80.2086 31.8109 80.5758 30.7537C80.9542 29.6854 81.2824 28.7506 81.5607 27.9493C81.8389 27.1481 82.0837 26.4359 82.2951 25.8127C82.5177 25.1895 82.7347 24.5663 82.9461 23.9432L81.9279 23.2588C81.85 23.2031 81.8277 23.1364 81.8611 23.0585C81.8945 22.9694 81.9557 22.9249 82.0447 22.9249H87.2194C86.8633 23.9487 86.5461 24.8612 86.2679 25.6625C85.9897 26.4526 85.7449 27.1592 85.5334 27.7824C85.322 28.3945 85.1328 28.9342 84.9659 29.4016C84.8101 29.8578 84.671 30.2696 84.5486 30.6368L84.3984 30.7704C84.3427 30.826 84.2537 30.9095 84.1313 31.0207C84.0089 31.1209 83.8419 31.2656 83.6305 31.4548C83.5749 31.5104 83.5582 31.5827 83.5804 31.6718C83.6138 31.7496 83.675 31.7886 83.7641 31.7886H90.9084C90.8639 31.911 90.8027 32.0724 90.7248 32.2727C90.658 32.4619 90.5857 32.6677 90.5078 32.8903C90.4299 33.1017 90.352 33.3187 90.2741 33.5413C90.2073 33.7527 90.1461 33.9419 90.0905 34.1088C89.9792 34.4427 89.7455 34.6096 89.3894 34.6096H79.2404Z" fill="white"></path><path d="M79.2404 34.6096C79.7634 33.0962 80.2086 31.8109 80.5758 30.7537C80.9542 29.6854 81.2824 28.7506 81.5607 27.9493C81.8389 27.1481 82.0837 26.4359 82.2951 25.8127C82.5177 25.1895 82.7347 24.5663 82.9461 23.9432L81.9279 23.2588C81.85 23.2031 81.8277 23.1364 81.8611 23.0585C81.8945 22.9694 81.9557 22.9249 82.0447 22.9249H87.2194C86.8633 23.9487 86.5461 24.8612 86.2679 25.6625C85.9897 26.4526 85.7449 27.1592 85.5334 27.7824C85.322 28.3945 85.1328 28.9342 84.9659 29.4016C84.8101 29.8578 84.671 30.2696 84.5486 30.6368L84.3984 30.7704C84.3427 30.826 84.2537 30.9095 84.1313 31.0207C84.0089 31.1209 83.8419 31.2656 83.6305 31.4548C83.5749 31.5104 83.5582 31.5827 83.5804 31.6718C83.6138 31.7496 83.675 31.7886 83.7641 31.7886H90.9084C90.8639 31.911 90.8027 32.0724 90.7248 32.2727C90.658 32.4619 90.5857 32.6677 90.5078 32.8903C90.4299 33.1017 90.352 33.3187 90.2741 33.5413C90.2073 33.7527 90.1461 33.9419 90.0905 34.1088C89.9792 34.4427 89.7455 34.6096 89.3894 34.6096H79.2404Z" fill="url(#paint10_linear_609_6840)"></path></g><path d="M58.6145 20.1768C58.7087 20.4386 60.8394 25.9146 61.8929 28.6198" stroke="#14121D" stroke-width="1.01363"></path><path d="M58.6145 20.1768C58.7087 20.4386 60.8394 25.9146 61.8929 28.6198" stroke="#090A0B" stroke-width="1.01363"></path><path d="M46.0647 35.9937C45.8887 35.7869 42.0773 31.5216 40.1936 29.4148" stroke="#14121D" stroke-width="1.01363"></path><path d="M46.0647 35.9937C45.8887 35.7869 42.0773 31.5216 40.1936 29.4148" stroke="#090A0B" stroke-width="1.01363"></path><defs><filter id="filter0_f_609_6840" x="86.5" y="0.5" width="305" height="49" filterUnits="userSpaceOnUse" color-interpolation-filters="sRGB"><feFlood flood-opacity="0" result="BackgroundImageFix"></feFlood><feBlend mode="normal" in="SourceGraphic" in2="BackgroundImageFix" result="shape"></feBlend><feGaussianBlur stdDeviation="11.75" result="effect1_foregroundBlur_609_6840"></feGaussianBlur></filter><filter id="filter1_ii_609_6840" x="7.04395" y="10.2432" width="25.2976" height="27.3435" filterUnits="userSpaceOnUse" color-interpolation-filters="sRGB"><feFlood flood-opacity="0" result="BackgroundImageFix"></feFlood><feBlend mode="normal" in="SourceGraphic" in2="BackgroundImageFix" result="shape"></feBlend><feColorMatrix in="SourceAlpha" type="matrix" values="0 0 0 0 0 0 0 0 0 0 0 0 0 0 0 0 0 0 127 0" result="hardAlpha"></feColorMatrix><feOffset dy="0.270302"></feOffset><feGaussianBlur stdDeviation="1.25352"></feGaussianBlur><feComposite in2="hardAlpha" operator="arithmetic" k2="-1" k3="1"></feComposite><feColorMatrix type="matrix" values="0 0 0 0 0.901961 0 0 0 0 0.996078 0 0 0 0 0.145098 0 0 0 0.1 0"></feColorMatrix><feBlend mode="normal" in2="shape" result="effect1_innerShadow_609_6840"></feBlend><feColorMatrix in="SourceAlpha" type="matrix" values="0 0 0 0 0 0 0 0 0 0 0 0 0 0 0 0 0 0 127 0" result="hardAlpha"></feColorMatrix><feOffset dy="0.270302"></feOffset><feGaussianBlur stdDeviation="0.425725"></feGaussianBlur><feComposite in2="hardAlpha" operator="arithmetic" k2="-1" k3="1"></feComposite><feColorMatrix type="matrix" values="0 0 0 0 0 0 0 0 0 0 0 0 0 0 0 0 0 0 0.7 0"></feColorMatrix><feBlend mode="normal" in2="effect1_innerShadow_609_6840" result="effect2_innerShadow_609_6840"></feBlend></filter><filter id="filter2_i_609_6840" x="7.04395" y="10.2432" width="21.3865" height="27.3435" filterUnits="userSpaceOnUse" color-interpolation-filters="sRGB"><feFlood flood-opacity="0" result="BackgroundImageFix"></feFlood><feBlend mode="normal" in="SourceGraphic" in2="BackgroundImageFix" result="shape"></feBlend><feColorMatrix in="SourceAlpha" type="matrix" values="0 0 0 0 0 0 0 0 0 0 0 0 0 0 0 0 0 0 127 0" result="hardAlpha"></feColorMatrix><feOffset dy="0.270302"></feOffset><feGaussianBlur stdDeviation="0.493301"></feGaussianBlur><feComposite in2="hardAlpha" operator="arithmetic" k2="-1" k3="1"></feComposite><feColorMatrix type="matrix" values="0 0 0 0 1 0 0 0 0 1 0 0 0 0 1 0 0 0 0.7 0"></feColorMatrix><feBlend mode="normal" in2="shape" result="effect1_innerShadow_609_6840"></feBlend></filter><filter id="filter3_f_609_6840" x="1.73227" y="4.93173" width="32.0098" height="37.6963" filterUnits="userSpaceOnUse" color-interpolation-filters="sRGB"><feFlood flood-opacity="0" result="BackgroundImageFix"></feFlood><feBlend mode="normal" in="SourceGraphic" in2="BackgroundImageFix" result="shape"></feBlend><feGaussianBlur stdDeviation="2.65572" result="effect1_foregroundBlur_609_6840"></feGaussianBlur></filter><filter id="filter4_f_609_6840" x="0.215913" y="3.71542" width="34.5599" height="40.8965" filterUnits="userSpaceOnUse" color-interpolation-filters="sRGB"><feFlood flood-opacity="0" result="BackgroundImageFix"></feFlood><feBlend mode="normal" in="SourceGraphic" in2="BackgroundImageFix" result="shape"></feBlend><feGaussianBlur stdDeviation="2.65572" result="effect1_foregroundBlur_609_6840"></feGaussianBlur></filter><filter id="filter5_ii_609_6840" x="32.2712" y="22.9248" width="58.624" height="11.9551" filterUnits="userSpaceOnUse" color-interpolation-filters="sRGB"><feFlood flood-opacity="0" result="BackgroundImageFix"></feFlood><feBlend mode="normal" in="SourceGraphic" in2="BackgroundImageFix" result="shape"></feBlend><feColorMatrix in="SourceAlpha" type="matrix" values="0 0 0 0 0 0 0 0 0 0 0 0 0 0 0 0 0 0 127 0" result="hardAlpha"></feColorMatrix><feOffset dy="0.270302"></feOffset><feGaussianBlur stdDeviation="1.25352"></feGaussianBlur><feComposite in2="hardAlpha" operator="arithmetic" k2="-1" k3="1"></feComposite><feColorMatrix type="matrix" values="0 0 0 0 0.901961 0 0 0 0 0.996078 0 0 0 0 0.145098 0 0 0 0.1 0"></feColorMatrix><feBlend mode="normal" in2="shape" result="effect1_innerShadow_609_6840"></feBlend><feColorMatrix in="SourceAlpha" type="matrix" values="0 0 0 0 0 0 0 0 0 0 0 0 0 0 0 0 0 0 127 0" result="hardAlpha"></feColorMatrix><feOffset dy="0.270302"></feOffset><feGaussianBlur stdDeviation="0.425725"></feGaussianBlur><feComposite in2="hardAlpha" operator="arithmetic" k2="-1" k3="1"></feComposite><feColorMatrix type="matrix" values="0 0 0 0 0 0 0 0 0 0 0 0 0 0 0 0 0 0 0.7 0"></feColorMatrix><feBlend mode="normal" in2="effect1_innerShadow_609_6840" result="effect2_innerShadow_609_6840"></feBlend></filter><filter id="filter6_ii_609_6840" x="31.1851" y="21.4548" width="62.2703" height="12.6985" filterUnits="userSpaceOnUse" color-interpolation-filters="sRGB"><feFlood flood-opacity="0" result="BackgroundImageFix"></feFlood><feBlend mode="normal" in="SourceGraphic" in2="BackgroundImageFix" result="shape"></feBlend><feColorMatrix in="SourceAlpha" type="matrix" values="0 0 0 0 0 0 0 0 0 0 0 0 0 0 0 0 0 0 127 0" result="hardAlpha"></feColorMatrix><feOffset dy="0.287115"></feOffset><feGaussianBlur stdDeviation="1.33149"></feGaussianBlur><feComposite in2="hardAlpha" operator="arithmetic" k2="-1" k3="1"></feComposite><feColorMatrix type="matrix" values="0 0 0 0 0.901961 0 0 0 0 0.996078 0 0 0 0 0.145098 0 0 0 0.1 0"></feColorMatrix><feBlend mode="normal" in2="shape" result="effect1_innerShadow_609_6840"></feBlend><feColorMatrix in="SourceAlpha" type="matrix" values="0 0 0 0 0 0 0 0 0 0 0 0 0 0 0 0 0 0 127 0" result="hardAlpha"></feColorMatrix><feOffset dy="0.287115"></feOffset><feGaussianBlur stdDeviation="0.452206"></feGaussianBlur><feComposite in2="hardAlpha" operator="arithmetic" k2="-1" k3="1"></feComposite><feColorMatrix type="matrix" values="0 0 0 0 0 0 0 0 0 0 0 0 0 0 0 0 0 0 0.7 0"></feColorMatrix><feBlend mode="normal" in2="effect1_innerShadow_609_6840" result="effect2_innerShadow_609_6840"></feBlend></filter><filter id="filter7_f_609_6840" x="63.3582" y="20.0418" width="16.7047" height="14.326" filterUnits="userSpaceOnUse" color-interpolation-filters="sRGB"><feFlood flood-opacity="0" result="BackgroundImageFix"></feFlood><feBlend mode="normal" in="SourceGraphic" in2="BackgroundImageFix" result="shape"></feBlend><feGaussianBlur stdDeviation="2.85506" result="effect1_foregroundBlur_609_6840"></feGaussianBlur></filter><filter id="filter8_i_609_6840" x="79.2405" y="22.9248" width="11.668" height="11.9551" filterUnits="userSpaceOnUse" color-interpolation-filters="sRGB"><feFlood flood-opacity="0" result="BackgroundImageFix"></feFlood><feBlend mode="normal" in="SourceGraphic" in2="BackgroundImageFix" result="shape"></feBlend><feColorMatrix in="SourceAlpha" type="matrix" values="0 0 0 0 0 0 0 0 0 0 0 0 0 0 0 0 0 0 127 0" result="hardAlpha"></feColorMatrix><feOffset dy="0.270302"></feOffset><feGaussianBlur stdDeviation="0.493301"></feGaussianBlur><feComposite in2="hardAlpha" operator="arithmetic" k2="-1" k3="1"></feComposite><feColorMatrix type="matrix" values="0 0 0 0 1 0 0 0 0 1 0 0 0 0 1 0 0 0 0.7 0"></feColorMatrix><feBlend mode="normal" in2="shape" result="effect1_innerShadow_609_6840"></feBlend></filter><filter id="filter9_if_609_6840" x="67.7797" y="11.464" width="34.5896" height="34.6064" filterUnits="userSpaceOnUse" color-interpolation-filters="sRGB"><feFlood flood-opacity="0" result="BackgroundImageFix"></feFlood><feBlend mode="normal" in="SourceGraphic" in2="BackgroundImageFix" result="shape"></feBlend><feColorMatrix in="SourceAlpha" type="matrix" values="0 0 0 0 0 0 0 0 0 0 0 0 0 0 0 0 0 0 127 0" result="hardAlpha"></feColorMatrix><feOffset dy="0.270302"></feOffset><feGaussianBlur stdDeviation="0.493301"></feGaussianBlur><feComposite in2="hardAlpha" operator="arithmetic" k2="-1" k3="1"></feComposite><feColorMatrix type="matrix" values="0 0 0 0 1 0 0 0 0 1 0 0 0 0 1 0 0 0 0.7 0"></feColorMatrix><feBlend mode="normal" in2="shape" result="effect1_innerShadow_609_6840"></feBlend><feGaussianBlur stdDeviation="5.7304" result="effect2_foregroundBlur_609_6840"></feGaussianBlur></filter><linearGradient id="paint0_linear_609_6840" x1="110" y1="25" x2="368" y2="25" gradientUnits="userSpaceOnUse"><stop stop-color="#73FB04" stop-opacity="0"></stop><stop offset="1" stop-color="#73FB04"></stop></linearGradient><linearGradient id="paint1_linear_609_6840" x1="110" y1="25" x2="368" y2="25" gradientUnits="userSpaceOnUse"><stop stop-color="#73FB04" stop-opacity="0"></stop><stop offset="1" stop-color="#73FB04"></stop></linearGradient><linearGradient id="paint2_linear_609_6840" x1="17.7372" y1="10.2432" x2="17.7372" y2="37.3163" gradientUnits="userSpaceOnUse"><stop stop-color="#B3F106"></stop><stop offset="1" stop-color="#5EFF03"></stop></linearGradient><linearGradient id="paint3_linear_609_6840" x1="61.8547" y1="22.6096" x2="61.8547" y2="34.6096" gradientUnits="userSpaceOnUse"><stop stop-color="#B3F106"></stop><stop offset="1" stop-color="#5EFF03"></stop></linearGradient><linearGradient id="paint4_linear_609_6840" x1="69.137" y1="21.8662" x2="69.137" y2="36.868" gradientUnits="userSpaceOnUse"><stop stop-color="#B3F106"></stop><stop offset="1" stop-color="#5EFF03"></stop></linearGradient><linearGradient id="paint5_linear_609_6840" x1="71.7174" y1="25.7856" x2="71.7174" y2="28.6238" gradientUnits="userSpaceOnUse"><stop stop-color="#B3F106"></stop><stop offset="1" stop-color="#5EFF03"></stop></linearGradient><linearGradient id="paint6_linear_609_6840" x1="71.7174" y1="25.7856" x2="71.7174" y2="28.6238" gradientUnits="userSpaceOnUse"><stop stop-color="#B3F106"></stop><stop offset="1" stop-color="#5EFF03"></stop></linearGradient><linearGradient id="paint7_linear_609_6840" x1="71.7174" y1="25.7856" x2="71.7174" y2="28.6238" gradientUnits="userSpaceOnUse"><stop stop-color="#B3F106"></stop><stop offset="1" stop-color="#5EFF03"></stop></linearGradient><linearGradient id="paint8_linear_609_6840" x1="71.7174" y1="25.7856" x2="71.7174" y2="28.6238" gradientUnits="userSpaceOnUse"><stop stop-color="#B3F106"></stop><stop offset="1" stop-color="#5EFF03"></stop></linearGradient><linearGradient id="paint9_linear_609_6840" x1="85.6577" y1="22.6096" x2="85.6577" y2="34.6096" gradientUnits="userSpaceOnUse"><stop stop-color="#B3F106"></stop><stop offset="1" stop-color="#5EFF03"></stop></linearGradient><linearGradient id="paint10_linear_609_6840" x1="85.6577" y1="22.6096" x2="85.6577" y2="34.6096" gradientUnits="userSpaceOnUse"><stop stop-color="#B3F106"></stop><stop offset="1" stop-color="#5EFF03"></stop></linearGradient></defs></svg>